<?xml version="1.0" encoding="utf-8"?>
<!-- Generator: Adobe Illustrator 23.0.1, SVG Export Plug-In . SVG Version: 6.00 Build 0)  -->
<svg width="75px" height="75px" version="1.1" id="Layer_1" xmlns="http://www.w3.org/2000/svg" xmlns:xlink="http://www.w3.org/1999/xlink" x="0px" y="0px"
	 viewBox="0 0 75 75" style="enable-background:new 0 0 75 75;" xml:space="preserve">
<style type="text/css">
	.st0{stroke:#000000;stroke-width:0.5;stroke-miterlimit:10;}
</style>
<title>proactive</title>
<path class="st0" d="M71.8,29.3l-5-2.3l0.2-0.5c0.1-0.3,0-0.6-0.3-0.8L65.3,25c0.3-1.5-0.7-3-2.2-3.3c-1.1-0.2-2.1,0.2-2.8,1
	l-1.5-0.7c-0.3-0.1-0.6,0-0.8,0.3l-0.3,0.5l-4.6-2.1c-0.3-0.1-0.6,0-0.8,0.3l-0.2,0.4c-0.1,0.3,0,0.6,0.4,0.8
	c0.2,0.1,0.5,0.1,0.6-0.1l4,1.8L57,24.7l-2.6-1.2c-0.3-0.1-0.6,0-0.8,0.3l-1.2,2.6c-0.1,0.3,0,0.6,0.3,0.8l0,0l0,0
	c0.1,0.1,0.2,0.1,0.2,0.1c0.2,0,0.4-0.1,0.5-0.4l1-2.2l2.1,0.9l-0.2,0.6c-0.1,0.3,0,0.6,0.3,0.8l7.9,3.6c0.3,0.1,0.6,0,0.8-0.3
	l0.2-0.6l2.6,1.2l-9.7,21.4L53.1,50c-0.3-0.1-0.6,0-0.8,0.3c-0.1,0.3,0,0.6,0.3,0.8l0,0l5.7,2.6c0.3,0.1,0.6,0,0.8-0.3l0,0l0,0
	L69.4,31c0.1-0.3,0-0.6-0.3-0.8L66,28.8l0.4-0.8l4.5,2.1L59.4,55l-6.3-2.9c-0.3-0.1-0.6,0-0.8,0.3c-0.1,0.3,0,0.6,0.3,0.8l0,0l0,0
	l6.8,3.1c0.3,0.1,0.6,0,0.8-0.3l0,0l0,0l11.8-26C72.2,29.7,72.1,29.4,71.8,29.3z M64.5,29.4l-6.9-3.1l1.3-2.9l1.4,0.6
	c0.3,0.1,0.6,0,0.8-0.3c0.5-0.8,1.4-1.1,2.2-0.6c0.7,0.4,1,1.2,0.7,1.9c-0.1,0.3,0,0.6,0.3,0.8l1.4,0.6L64.5,29.4z"/>
<path class="st0" d="M64.7,34c0.3,0.1,0.6,0,0.8-0.3s0-0.6-0.3-0.8l0,0l0,0l-10.1-4.6c-0.3-0.1-0.6,0-0.8,0.3s0,0.6,0.3,0.8L64.7,34
	z"/>
<path class="st0" d="M53.3,30.9c-0.1,0.3,0,0.6,0.3,0.8l6.7,3c0.3,0.1,0.6,0,0.8-0.3s0-0.6-0.3-0.8l0,0l0,0L54,30.6
	C53.8,30.5,53.4,30.6,53.3,30.9z"/>
<path class="st0" d="M52.4,33.1c-0.1,0.3,0,0.6,0.3,0.8l10.1,4.6c0.3,0.1,0.6,0,0.8-0.2c0.1-0.3,0-0.6-0.3-0.8l0,0l0,0l-10.1-4.6
	C52.9,32.7,52.5,32.8,52.4,33.1L52.4,33.1z"/>
<path class="st0" d="M52.7,36.7l7.5,3.5c0.3,0.1,0.6,0,0.8-0.3c0.1-0.3,0-0.6-0.3-0.8l0,0l0,0l-7.5-3.5c-0.3-0.1-0.6,0-0.8,0.3
	C52.3,36.2,52.4,36.5,52.7,36.7z"/>
<path class="st0" d="M10.1,54.1c-0.4,0-0.6-0.2-0.6-0.6l-0.2-3.9C5.9,46.7,4.5,42,5.8,37.8c-2.1-1.4-2.7-4.3-1.3-6.4
	c0.1-0.1,0.1-0.1,0.1-0.1c1.5-2.1,4.5-2.6,6.6-1l0,0c0.2,0.2,0.5,0.4,0.7,0.6c1.9-0.9,3.9-1.2,6-0.9c0.6-1.5,2-2.5,3.6-2.7
	c0.2-0.1,0.4-0.1,0.6-0.1c0.4,0,0.6,0.2,0.6,0.6c0,0.4-0.2,0.6-0.6,0.6c-0.2,0-0.3,0-0.5,0.1c-1.3,0.2-2.4,1.1-2.8,2.3
	c-0.1,0.3-0.4,0.5-0.6,0.4c-2.1-0.3-4.3,0-6.2,1c-0.2,0.1-0.6,0.1-0.7-0.2c-1.2-1.6-3.4-1.9-5-0.8C6,31.5,5.8,31.7,5.6,32
	C5,32.8,4.8,33.7,5,34.6c0.2,1.1,0.8,2,1.8,2.5c0.2,0.1,0.4,0.5,0.3,0.7c-1.4,4-0.1,8.5,3.3,11.1c0.1,0.1,0.2,0.3,0.2,0.5l0.1,2.6
	l1.2-1.4c0.2-0.2,0.5-0.3,0.7-0.2c2.9,1.2,6.1,1.1,8.8-0.4l0.4-0.2c0.3-0.2,0.6-0.1,0.8,0.2c0.2,0.3,0.1,0.6-0.2,0.8h-0.1l-0.4,0.2
	c-2.9,1.5-6.4,1.8-9.5,0.5l-1.9,2.3C10.5,53.9,10.3,54,10.1,54.1z"/>
<path class="st0" d="M16.9,41.7c-0.3,0-0.5-0.2-0.6-0.5l-1.1-6c-0.1-0.4,0.2-0.6,0.5-0.7c0.3-0.1,0.6,0.2,0.7,0.5l0.9,5.4l3.6-0.6
	c0.4-0.1,0.6,0.2,0.7,0.5c0.1,0.4-0.2,0.6-0.5,0.7l-4.1,0.8H16.9z"/>
<path class="st0" d="M44,75h-0.1c-0.3-0.1-0.5-0.4-0.5-0.7c0.4-2,2.4-3.3,4.4-2.8l0,0l0.3,0.1c0.6-1.8,2.2-3,4-3.3
	c-0.8-3.2,1.1-6.3,4.3-7.1c1.6-0.4,3.3-0.1,4.6,0.8c1.3-1.7,3.7-2.2,5.6-1.2c0.4-1.6,2.1-2.7,3.8-2.3c0.9,0.2,1.6,0.8,2,1.6
	c0.8-0.4,1.6-0.4,2.3,0.1c0.3,0.2,0.4,0.5,0.2,0.8c-0.2,0.3-0.5,0.4-0.8,0.2l0,0c-0.2-0.2-0.6-0.3-1.8,0.2c-0.3,0.1-0.6,0-0.8-0.3
	c0-0.1-0.1-0.1-0.1-0.1c-0.3-1.1-1.3-1.6-2.3-1.3c-0.9,0.2-1.6,1.2-1.4,2.1c0.1,0.3-0.2,0.6-0.5,0.6l0,0c-0.2,0-0.4-0.1-0.5-0.2
	c-1.3-1.2-3.3-1.2-4.6,0.1c-0.2,0.2-0.4,0.4-0.5,0.6c-0.2,0.3-0.5,0.4-0.8,0.2c-0.1,0-0.1-0.1-0.1-0.1c-2-1.6-4.9-1.4-6.6,0.6
	c-1.1,1.3-1.4,3.2-0.8,4.7c0.1,0.2,0.1,0.4-0.1,0.5c-0.1,0.2-0.3,0.2-0.5,0.2h-0.1c-1.8,0-3.4,1.3-3.8,3c-0.1,0.3-0.4,0.5-0.7,0.5
	l0,0c-0.1,0-0.1-0.1-0.1-0.1c-1.2-0.6-2.7-0.2-3.3,1c-0.1,0.2-0.2,0.5-0.2,0.7C44.5,74.8,44.3,75,44,75z"/>
<path class="st0" d="M51.4,56L51.4,56l-0.1-42.3c0-0.7-0.6-1.3-1.3-1.3l0,0H24.9c-0.7,0-1.3,0.6-1.3,1.3l0.1,48.3
	c0,0.7,0.6,1.3,1.3,1.3c0,0,0,0,0.1,0l0,0h25.1c0.7,0,1.3-0.6,1.3-1.3l0,0l0,0L51.4,56z M24.9,13.6H50l0,0c0.1,0,0.2,0.1,0.2,0.2
	l0,0l0,0l0.1,41.7H24.8l-0.1-41.7C24.7,13.7,24.8,13.6,24.9,13.6L24.9,13.6z M50.2,62.1c0,0.1-0.1,0.1-0.1,0.1l0,0H25l0,0
	c-0.1,0-0.2-0.1-0.2-0.2l0,0l0,0v-5.4h25.4V62C50.3,62.1,50.2,62.1,50.2,62.1L50.2,62.1z"/>
<path class="st0" d="M38.3,57.9c-0.8-0.4-1.9-0.1-2.3,0.8S36,60.6,36.8,61s1.9,0.1,2.3-0.8l0,0c0.2-0.4,0.2-0.9,0.1-1.3
	C39,58.4,38.7,58.1,38.3,57.9z M38,59.7L38,59.7c-0.1,0.3-0.4,0.4-0.7,0.3c-0.3-0.1-0.4-0.4-0.3-0.7c0,0,0-0.1,0.1-0.1
	c0.1-0.3,0.5-0.4,0.7-0.2l0,0c0.1,0.1,0.2,0.2,0.3,0.3C38.1,59.4,38.1,59.6,38,59.7L38,59.7z"/>
<path class="st0" d="M35.8,16.1h3.4c0.4,0,0.6-0.2,0.6-0.6c0-0.4-0.2-0.6-0.6-0.6h-3.4c-0.4,0-0.6,0.2-0.6,0.6
	C35.2,15.8,35.4,16.1,35.8,16.1z"/>
<path class="st0" d="M30.2,0.4C29.3-1,22.6,1.9,17.9,5.1c-0.1,0.1-0.2,0.2-0.2,0.4c0,0.1,0,0.2,0,0.3l-2,1.9c-0.2,0.2-0.2,0.6,0,0.8
	c0.2,0.2,0.4,0.2,0.6,0.1l2.2-1.2l-1.9,1.8c-0.2,0.2-0.2,0.6,0,0.8c0.2,0.2,0.5,0.2,0.7,0.1l2.3-1.2l0,0l-2,1.9
	c-0.2,0.2-0.2,0.6,0,0.8c0.2,0.2,0.5,0.2,0.7,0.1l2.5-1.3c0.2,0.1,0.4,0.1,0.6,0C26.1,7,31.2,1.7,30.2,0.4z M21.3,8.9l-2.2-3.2
	c4.4-3,8.6-4.4,10-4.6C28.4,2.4,25.6,5.8,21.3,8.9z"/>
<path class="st0" d="M21.1,6.7c0.2,0.4,0.6,0.6,1.1,0.6h0.3c0.9,0,1.6-0.8,1.6-1.6s-0.8-1.6-1.6-1.6s-1.6,0.8-1.6,1.6
	C20.8,6.1,20.9,6.4,21.1,6.7z M22.1,5.4c0.2-0.1,0.5-0.1,0.6,0.2c0.1,0.2,0.1,0.5-0.1,0.6c-0.1,0.1-0.2,0.1-0.4,0.1
	c-0.1,0-0.2-0.1-0.3-0.2C21.9,5.8,22,5.5,22.1,5.4L22.1,5.4z"/>
<path class="st0" d="M5.3,17.3c0.2,0,0.3-0.1,0.4-0.2c2.3-2.2,4.7-4.2,7.3-6.1c0.2-0.2,0.3-0.6,0.1-0.8c-0.2-0.2-0.6-0.3-0.8-0.1
	c-2.6,1.9-5.1,4-7.4,6.2c-0.2,0.2-0.2,0.6,0,0.8C5,17.3,5.2,17.3,5.3,17.3z"/>
<path class="st0" d="M13.2,13c-0.2-0.2-0.6-0.3-0.8-0.1l0,0l0,0C12.3,13,4.1,19.8,0.2,24.2c-0.2,0.2-0.2,0.6,0.1,0.8l0,0
	c0.2,0.2,0.6,0.2,0.8-0.1l0,0c3.9-4.3,12-11,12.1-11.1C13.4,13.6,13.4,13.3,13.2,13L13.2,13z"/>
<path class="st0" d="M16.1,12.7c-2.1,1.6-4,3.2-5.9,5c-0.2,0.2-0.3,0.6-0.1,0.8c0.2,0.2,0.6,0.3,0.8,0.1l0,0l0.1-0.1
	c1.8-1.7,3.7-3.3,5.7-4.9c0.2-0.2,0.3-0.6,0.1-0.8C16.8,12.6,16.4,12.5,16.1,12.7L16.1,12.7L16.1,12.7z"/>
<path class="st0" d="M37.4,46.3c-5.3,0-9.7-4.3-9.7-9.7s4.3-9.7,9.7-9.7s9.6,4.3,9.7,9.6l0,0c0.1,5.3-4.2,9.7-9.6,9.7H37.4z
	 M37.4,28.1L37.4,28.1c-4.7,0-8.6,3.8-8.5,8.6s3.8,8.5,8.6,8.4h0.1c4.7-0.1,8.4-3.9,8.4-8.6l0,0l0,0C45.9,31.8,42.1,28.1,37.4,28.1
	L37.4,28.1z"/>
<path class="st0" d="M36.5,40.1c-0.2,0-0.3-0.1-0.4-0.2l-3.1-3c-0.2-0.2-0.3-0.6-0.1-0.8c0.2-0.2,0.6-0.3,0.8-0.1l0.1,0.1l2.7,2.6
	l5.4-5.5c0.2-0.3,0.5-0.4,0.8-0.2s0.4,0.5,0.2,0.8c0,0.1-0.1,0.1-0.1,0.1L42.7,34l-5.8,6C36.8,40,36.7,40.1,36.5,40.1L36.5,40.1z"/>
<path class="st0" d="M18.1,61.8c-0.3,0-0.5-0.2-0.6-0.5s-0.1-0.5-0.2-0.7c-0.2-0.1-0.5-0.1-0.7-0.2c-0.4,0-0.6-0.2-0.6-0.6
	c0-0.4,0.2-0.6,0.6-0.6c0.3-0.1,0.5-0.1,0.7-0.2c0.1-0.2,0.1-0.5,0.2-0.7c0.1-0.3,0.3-0.5,0.6-0.5l0,0c0.3,0,0.5,0.2,0.6,0.5
	s0.1,0.5,0.2,0.7c0.2,0.1,0.5,0.1,0.7,0.2c0.4,0,0.6,0.2,0.6,0.6c0,0.4-0.2,0.6-0.6,0.6c-0.3,0.1-0.5,0.1-0.7,0.2
	c-0.1,0.2-0.1,0.5-0.2,0.7C18.6,61.6,18.4,61.8,18.1,61.8z"/>
<path class="st0" d="M60.5,11.9c-0.3,0-0.5-0.2-0.6-0.5c-0.1-0.8-0.2-1.6-0.4-2.4c-0.6-0.2-1.2-0.3-1.8-0.4c-0.4,0-0.6-0.2-0.6-0.6
	s0.2-0.6,0.6-0.6c0.6-0.1,1.2-0.2,1.8-0.4c0.1-0.4,0.3-1.5,0.4-2.4c0.1-0.3,0.3-0.5,0.6-0.5l0,0c0.3,0,0.5,0.2,0.6,0.5
	c0.1,0.8,0.2,1.6,0.4,2.4c0.6,0.2,1.2,0.3,1.8,0.4c0.4,0,0.6,0.2,0.6,0.6s-0.2,0.6-0.6,0.6c-0.6,0.1-1.2,0.2-1.8,0.4
	c-0.1,0.4-0.3,1.5-0.4,2.4C61,11.7,60.8,11.9,60.5,11.9z M60.1,8c0.1,0.1,0.1,0.1,0.2,0.1c0.1,0.1,0.1,0.1,0.1,0.2
	c0.1-0.1,0.1-0.1,0.1-0.2C60.6,8.1,60.6,8,60.7,8c-0.1-0.1-0.1-0.1-0.2-0.1c-0.1-0.1-0.1-0.1-0.1-0.2c-0.1,0.1-0.1,0.1-0.1,0.2
	C60.2,7.9,60.2,7.9,60.1,8L60.1,8z"/>
<path class="st0" d="M37.4,75c-0.2,0-0.4-0.1-0.5-0.4c-0.5-1-1.4-1.8-2.5-2.1c-0.3-0.1-0.5-0.4-0.4-0.8l0,0l0,0
	c0.1-0.1,0.1-0.3,0.1-0.4c0.1-0.4,0.1-0.6,0.1-1s0.2-0.6,0.6-0.6c0.1,0,0.1,0,0.2,0c0.2,0.1,0.3,0.1,0.5,0.1c1.1,0,1.9-0.8,1.9-1.9
	c0-1.1-0.8-1.9-1.9-1.9c-0.6,0-1.2,0.3-1.6,0.8c-0.2,0.3-0.5,0.4-0.8,0.2c-0.1,0-0.1-0.1-0.1-0.1c-0.6-0.7-1.5-1.2-2.4-1.3
	c-2.2-0.5-4.4,0.6-5.3,2.7c-0.1,0.3-0.5,0.4-0.7,0.3c-1.4-0.5-2.9-0.1-4,0.9c-0.2,0.2-0.5,0.2-0.7,0.1c-0.2-0.1-0.5-0.2-0.7-0.3
	c-0.9-0.2-1.9,0.1-2.5,0.9c-0.2,0.2-0.6,0.3-0.8,0.1c-0.1-0.1-0.2-0.2-0.2-0.4c-0.1-0.9-0.7-1.6-1.6-1.9h-0.2
	c-0.3-0.1-0.5-0.3-0.5-0.6l0,0v-0.1c0.2-1-0.5-2-1.5-2.2c-0.5-0.1-1.1,0-1.5,0.4c-0.2,0.2-0.5,0.2-0.8,0C9,65,8.2,64.8,7.4,65
	C7.2,65,7,64.9,6.9,64.7c-0.2-0.4-0.6-0.6-1.1-0.7c-0.8-0.2-1.6,0.2-2,0.8c-0.1,0.2-0.3,0.3-0.5,0.3c-1.5-0.1-2.2,0.6-2.2,2.1
	c0,0.4-0.2,0.6-0.6,0.6s-0.6-0.2-0.6-0.6c0-2,1.1-3.2,3-3.3c1.1-1.3,2.9-1.5,4.2-0.5l0,0c0.1,0.1,0.2,0.2,0.3,0.3
	c0.4-0.1,0.8-0.1,1.2,0.1c0.4,0.1,0.8,0.3,1.2,0.5c0.6-0.4,1.4-0.5,2.1-0.3c1.4,0.4,2.3,1.6,2.3,3c0.9,0.3,1.6,0.9,2,1.8
	c0.8-0.6,1.9-0.8,2.9-0.6c0.2,0.1,0.4,0.1,0.6,0.2c1.2-1,2.8-1.3,4.3-1.1h0.1c1.3-2.2,3.9-3.4,6.4-2.9c0.9,0.2,1.8,0.6,2.5,1.2
	c1.2-1.2,3.1-1.1,4.3,0.1s1.1,3.1-0.1,4.3c-0.6,0.5-1.3,0.8-2.1,0.8c0,0.2-0.1,0.4-0.1,0.5c1.2,0.5,2.1,1.4,2.7,2.5
	c0.1,0.3,0,0.6-0.3,0.8C37.5,74.9,37.4,75,37.4,75L37.4,75z"/>
</svg>
