<svg width="75px" height="75px" id="Layer_1" data-name="Layer 1" xmlns="http://www.w3.org/2000/svg" viewBox="0 0 60.02 60.03"><title>probelm-solving</title><path d="M49,40H31a1,1,0,0,0-1,1v3h2V42H48V58H32V57H30v2a1,1,0,0,0,1,1H49a1,1,0,0,0,1-1V41A1,1,0,0,0,49,40Z"/><path d="M38,56h4a1,1,0,0,0,1-1V50.41a3.74,3.74,0,0,0,1-2.54,4,4,0,0,0-8,0,3.74,3.74,0,0,0,1,2.54V55A1,1,0,0,0,38,56Zm2-10a1.93,1.93,0,0,1,2,1.85,1.78,1.78,0,0,1-.65,1.36A1,1,0,0,0,41,50v4H39V50a1,1,0,0,0-.35-.76A1.78,1.78,0,0,1,38,47.87,1.93,1.93,0,0,1,40,46Z"/><path d="M40,22.52a3,3,0,1,0,3,3h0A3,3,0,0,0,40,22.52Zm0,4a1,1,0,1,1,1-1A1,1,0,0,1,40,26.52Z"/><path d="M13,47.52A1.5,1.5,0,1,0,14.5,49,1.5,1.5,0,0,0,13,47.52Zm0,2a.5.5,0,0,1-.5-.5.5.5,0,0,1,1,0A.5.5,0,0,1,13,49.52Z"/><path d="M40,0C32.28,0,26,5.93,26,13.2a12.62,12.62,0,0,0,3,8.12c1.69,2,2.82,7.19,2.82,9.7a1,1,0,0,0,1,1H47.22a1,1,0,0,0,1-1c0-2.52,1.13-7.67,2.82-9.7a12.62,12.62,0,0,0,3-8.12C54,5.93,47.72,0,40,0Zm9.5,20c-1.89,2.27-3,7-3.24,10H33.74c-.22-3-1.35-7.71-3.24-10A10.61,10.61,0,0,1,28,13.2C28,7,33.38,2,40,2S52,7,52,13.2A10.61,10.61,0,0,1,49.5,20Z"/><path d="M47,34a1,1,0,0,0-1-1H34a1,1,0,0,0,0,2H46A1,1,0,0,0,47,34Z"/><path d="M35,36a1,1,0,0,0,0,2H45a1,1,0,0,0,0-2Z"/><path d="M43,4H37a1,1,0,0,0-1,1,1.5,1.5,0,0,0,0,.2l3,15a1,1,0,0,0,2,0l3-15A1,1,0,0,0,43.2,4,.68.68,0,0,0,43,4Zm-3,10.9L38.22,6h3.56Z"/><rect x="55.97" y="0.02" width="2" height="2" transform="translate(-0.01 0.92) rotate(-0.92)"/><rect x="56.03" y="4.02" width="2" height="2" transform="translate(-0.07 0.89) rotate(-0.89)"/><rect x="58" y="1.98" width="2" height="2" transform="translate(-0.04 0.92) rotate(-0.89)"/><rect x="54" y="2.05" width="2" height="2" transform="translate(-0.04 0.86) rotate(-0.89)"/><rect x="13.97" y="20.02" width="2" height="2" transform="translate(-0.33 0.24) rotate(-0.89)"/><rect x="14.03" y="24.02" width="2" height="2" transform="translate(-0.4 0.25) rotate(-0.92)"/><rect x="16" y="21.98" width="2" height="2" transform="translate(-0.37 0.28) rotate(-0.92)"/><rect x="12" y="22.05" width="2" height="2" transform="translate(-0.37 0.21) rotate(-0.92)"/><rect x="55.97" y="54.02" width="2" height="2" transform="translate(-0.88 0.92) rotate(-0.92)"/><rect x="56.03" y="58.02" width="2" height="2" transform="translate(-0.94 0.93) rotate(-0.92)"/><rect x="58" y="55.98" width="2" height="2" transform="translate(-0.88 0.93) rotate(-0.89)"/><rect x="54" y="56.05" width="2" height="2" transform="translate(-0.88 0.87) rotate(-0.89)"/><path d="M31,54V52h1a3,3,0,0,0,0-6H17a5,5,0,1,0-1,7,5.26,5.26,0,0,0,1-1h8v2a1,1,0,0,0,1,1h4A1,1,0,0,0,31,54Zm-2-3v2H27V51a1,1,0,0,0-1-1H16.44a1,1,0,0,0-.86.5,3,3,0,1,1,0-3,1,1,0,0,0,.86.5H32a1,1,0,0,1,0,2H30A1,1,0,0,0,29,51Z"/><path d="M18,57H6V53.83a1,1,0,0,0-1-1,.92.92,0,0,0-.33.06A2.21,2.21,0,0,1,4,53a2,2,0,0,1,0-4,1.93,1.93,0,0,1,.67.12,1,1,0,0,0,1.27-.61A.92.92,0,0,0,6,48.2V42H9.18a1,1,0,0,0,1-1,1.27,1.27,0,0,0,0-.34A1.89,1.89,0,0,1,10,40a2,2,0,0,1,4,0,1.89,1.89,0,0,1-.13.66A1,1,0,0,0,14.48,42a1,1,0,0,0,.34.06H18v2h2V41a1,1,0,0,0-1-1H16a4,4,0,0,0-8,0H5a1,1,0,0,0-1,1v6a4,4,0,0,0,0,8v3a1,1,0,0,0,1,1H19a1,1,0,0,0,1-1V54H18Z"/></svg>
