<?xml version="1.0" encoding="utf-8"?>
<!-- Generator: Adobe Illustrator 22.0.1, SVG Export Plug-In . SVG Version: 6.00 Build 0)  -->
<svg width="95px" height="95px" version="1.1" id="Layer_1" xmlns="http://www.w3.org/2000/svg" xmlns:xlink="http://www.w3.org/1999/xlink" x="0px" y="0px"
	 viewBox="0 0 74.5 74.5" style="enable-background:new 0 0 74.5 74.5;" xml:space="preserve">
<style type="text/css">
	.st0{fill:#FFFFFF;}
</style>
<g>
	<path class="st0" d="M39.2,29.1c1.6,0,2.8-1.3,2.8-2.8c0-1.6-1.3-2.8-2.8-2.8c-1.6,0-2.8,1.3-2.8,2.8
		C36.4,27.8,37.6,29.1,39.2,29.1z M39.2,24.3c1,0,1.9,0.9,1.9,1.9c0,1-0.9,1.9-1.9,1.9c0,0-0.1,0-0.1,0c0.4-0.3,0.6-0.9,0.6-1.4
		h-0.9c0,0.5-0.3,0.9-0.8,0.9c-0.4-0.4-0.6-0.9-0.6-1.4C37.3,25.2,38.1,24.3,39.2,24.3z"/>
	<path class="st0" d="M24.5,34.7c1.6,0,2.8-1.3,2.8-2.8c0-1.6-1.3-2.8-2.8-2.8c-1.6,0-2.8,1.3-2.8,2.8C21.7,33.5,23,34.7,24.5,34.7z
		 M24.5,30c1,0,1.9,0.9,1.9,1.9c0,0.6-0.2,1-0.6,1.4c-0.5-0.1-0.8-0.5-0.8-0.9h-0.9c0,0.6,0.2,1,0.6,1.4c0,0-0.1,0-0.1,0
		c-1,0-1.9-0.9-1.9-1.9S23.5,30,24.5,30z"/>
	<path class="st0" d="M47.4,23.9L44.5,23c-0.1-0.1-0.3,0-0.4,0c-0.1,0.1-0.2,0.2-0.2,0.4v3.8v2.4h-6.6c-0.1,0-0.2,0-0.3,0.1L34.2,32
		c0,0-0.1,0.1-0.1,0.1l-1.3,2.7l-3,1.3l-2.6-0.9c-0.1,0-0.1,0-0.2,0h-3.8c-1.3,0-2.4,1-2.4,2.4v5.2c0,0.3,0.2,0.5,0.5,0.5h1.4v5.7
		h-1.9v0.9h2.4h2.4h1.9c0.3,0,0.5-0.2,0.5-0.5V47h0.9h2.4h3.3c0.3,0,0.5-0.2,0.5-0.5v-2.4h2.8h2.4c0.3,0,0.5-0.2,0.5-0.5v-2.4h2.8
		h2.4h1.4v-0.9h-0.9v-3.8c0-1.3-1-2.4-2.4-2.4H42v-1.9h2.4c1.3,0,2.4-1,2.4-2.4v-2.8c0-0.3-0.2-0.5-0.5-0.5h-1.4v-1.1l2.5-0.9
		c0.2,0,0.3-0.2,0.3-0.4S47.6,24,47.4,23.9z M39.9,30.5l-0.2,0.6l-0.2-0.6H39.9z M27.4,46.1c-0.3,0-0.5,0.2-0.5,0.5v2.4H26v-5.7h2.4
		v2.8H27.4z M29.3,46.1v-3.3c0-0.3-0.2-0.5-0.5-0.5h-3.3c-0.3,0-0.5,0.2-0.5,0.5v6.1h-1.4V38h-0.9v4.3h-0.9v-4.7
		c0-0.8,0.6-1.4,1.4-1.4h1.4v3.3h0.9v-3.3h1.3l2.7,0.9c0.1,0,0.2,0,0.3,0l2.9-1.3l0.3,0.4l0.1,0.2L30.1,38l-3.2-0.5
		c-0.1,0-0.3,0-0.4,0.1c-0.1,0.1-0.1,0.2-0.1,0.4v2.4c0,0.3,0.2,0.5,0.5,0.5h2.4c0.8,0,1.4,0.6,1.4,1.4v3.8H29.3z M34.5,43.2
		c-0.3,0-0.5,0.2-0.5,0.5v2.4h-2.4v-3.8c0-1.3-1-2.4-2.4-2.4h-1.9v-1.3l2.8,0.4c0.1,0,0.2,0,0.3,0l3.8-1.9c0,0,0.1-0.1,0.2-0.1l0,0
		l1.8-2.8l1-0.8v9.9H34.5z M43,40.4h-2.4v-2.8H43V40.4z M45.8,30c0,0.8-0.6,1.4-1.4,1.4h-2.8c-0.3,0-0.5,0.2-0.5,0.5v2.8
		c0,0.3,0.2,0.5,0.5,0.5h2.4c0.8,0,1.4,0.6,1.4,1.4v3.8h-1.4v-3.3c0-0.3-0.2-0.5-0.5-0.5h-3.3c-0.3,0-0.5,0.2-0.5,0.5v3.8v2.4h-1.4
		V32.4c0-0.2-0.1-0.3-0.3-0.4c-0.1-0.1-0.3,0-0.5,0l-1.9,1.4c0,0-0.1,0-0.1,0.1L34,35.8l-0.4-0.6l1.2-2.5l2.6-2.2h0.9l0.8,2.1
		c0.1,0.2,0.2,0.3,0.4,0.3s0.4-0.1,0.4-0.3l0.8-2.1h3.5c0.3,0,0.5-0.2,0.5-0.5v-2.4h0.9V30z M44.9,24.6V24l0.9,0.3L44.9,24.6z"/>
	<path class="st0" d="M56.1,36.9c-0.2,0-0.4,0.2-0.4,0.4l0,0c0,0.7-0.1,1.4-0.2,2C53.9,51.2,42.9,59.5,31,57.9l0,0l0,0
		c-0.2,0-0.4,0.1-0.4,0.3s0.1,0.4,0.3,0.4c1,0.1,2.1,0.2,3.2,0.2c11.2,0,20.7-8.3,22.3-19.4c0.1-0.7,0.2-1.4,0.2-2.1
		C56.5,37.1,56.4,36.9,56.1,36.9L56.1,36.9z"/>
	<path class="st0" d="M11.8,37.1L11.8,37.1c0.2,0,0.4-0.2,0.4-0.4l0,0c0-1.2,0-2.3,0.2-3.5C14.1,21.3,25.1,13,37,14.6
		c2.2,0.3,4.4,1,6.5,2c0.2,0.1,0.4,0,0.5-0.2c0.1-0.2,0-0.3-0.1-0.4l0,0c-11.2-5.4-24.7-0.7-30.1,10.5c-1.5,3.2-2.3,6.7-2.2,10.2
		C11.5,36.9,11.7,37,11.8,37.1z"/>
	<path class="st0" d="M12.1,39.5c-0.2,0-0.3,0.2-0.3,0.4c0.1,0.6,0.2,1.2,0.4,1.8c0,0.2,0.2,0.3,0.4,0.3h0.1c0.2,0,0.3-0.2,0.3-0.4
		l0,0c-0.1-0.6-0.3-1.1-0.4-1.7C12.5,39.6,12.3,39.5,12.1,39.5L12.1,39.5z"/>
</g>
</svg>
