<?xml version="1.0" encoding="utf-8"?>
<!-- Generator: Adobe Illustrator 23.0.1, SVG Export Plug-In . SVG Version: 6.00 Build 0)  -->
<svg width="95px" height="95px" version="1.1" id="Layer_1" xmlns="http://www.w3.org/2000/svg" xmlns:xlink="http://www.w3.org/1999/xlink" x="0px" y="0px"
	 viewBox="0 0 75 75" style="enable-background:new 0 0 75 75;" xml:space="preserve">
<style type="text/css">
	.st0{fill:#FFFFFF;}
</style>
<title>ggg</title>
<path class="st0" d="M33.7,33.7c2,0,3.5,1.6,3.5,3.5c0,2-1.6,3.5-3.5,3.5c-2,0-3.5-1.6-3.5-3.5C30.1,35.3,31.7,33.7,33.7,33.7
	C33.7,33.7,33.7,33.7,33.7,33.7 M33.7,32.7c-2.5,0-4.5,2-4.5,4.5s2,4.5,4.5,4.5c2.5,0,4.4-2,4.5-4.4C38.1,34.8,36.2,32.8,33.7,32.7
	C33.7,32.7,33.7,32.7,33.7,32.7z"/>
<path class="st0" d="M50.2,34.5v5.4h-5.4v-5.4H50.2 M51.2,33.6h-7.3v7.2h7.2L51.2,33.6L51.2,33.6z"/>
<rect x="36.6" y="48.6" class="st0" width="7.2" height="7.2"/>
<path class="st0" d="M40.2,22l3.6,6.3h-7.3L40.2,22 M40.2,20.2l-5.2,9h10.4C45.4,29.2,40.2,20.2,40.2,20.2z"/>
<path class="st0" d="M45,52.4l-0.3-0.8c2.3-0.9,3.7-2.2,4.1-3.8c0.8-2.8-1.6-5.8-1.6-5.9l0.7-0.6c0.1,0.1,2.7,3.4,1.8,6.7
	C49.2,50,47.6,51.4,45,52.4z"/>
<polygon class="st0" points="45.6,49.2 46.1,49.4 45,51.9 47.6,52.8 47.4,53.3 44.3,52.2 "/>
<path class="st0" d="M59.5,30.7c-0.2,0.1-0.3,0.3-0.2,0.5c0.2,0.6,0.4,1.3,0.5,2c2.6,11.8-4.9,23.4-16.6,26l0,0
	c-0.2,0-0.3,0.2-0.3,0.4c0,0.2,0.2,0.3,0.4,0.3l0,0c1-0.2,2.1-0.5,3-0.9C57,54.9,63,43.9,60.6,32.9c-0.2-0.7-0.3-1.4-0.6-2
	C60,30.7,59.8,30.6,59.5,30.7L59.5,30.7z"/>
<path class="st0" d="M57.6,26.5c-0.2,0.1-0.2,0.3-0.1,0.5c0.3,0.5,0.5,0.9,0.7,1.4c0.1,0.2,0.3,0.2,0.4,0.2l0,0
	c0.2-0.1,0.2-0.3,0.2-0.5c-0.2-0.5-0.5-1-0.8-1.5C58,26.4,57.8,26.4,57.6,26.5L57.6,26.5z"/>
<path class="st0" d="M18.1,46.3L18.1,46.3c0.2-0.1,0.3-0.3,0.2-0.5c-0.4-1.1-0.8-2.2-1-3.3C14.6,30.8,22,19.1,33.8,16.5
	c2.2-0.5,4.5-0.6,6.8-0.4c0.2,0,0.4-0.2,0.4-0.3c0-0.2-0.1-0.3-0.3-0.4l0,0c-12.4-1.2-23.4,7.9-24.5,20.3c-0.3,3.5,0.2,7.1,1.5,10.4
	C17.7,46.2,17.8,46.3,18.1,46.3C18,46.3,18.1,46.3,18.1,46.3z"/>
<path class="st0" d="M19.1,48.5c-0.2,0.1-0.2,0.3-0.1,0.5c0.3,0.5,0.6,1,0.9,1.5c0.1,0.1,0.3,0.2,0.4,0.1h0.1
	c0.2-0.1,0.2-0.3,0.1-0.5l0,0c-0.3-0.5-0.6-1-0.9-1.5C19.5,48.5,19.3,48.4,19.1,48.5L19.1,48.5z"/>
</svg>
