<?xml version="1.0" encoding="utf-8"?>
<!-- Generator: Adobe Illustrator 23.0.1, SVG Export Plug-In . SVG Version: 6.00 Build 0)  -->
<svg width="75px" height="75px" version="1.1" id="Layer_1" xmlns="http://www.w3.org/2000/svg" xmlns:xlink="http://www.w3.org/1999/xlink" x="0px" y="0px"
	 viewBox="0 0 75 75" style="enable-background:new 0 0 75 75;" xml:space="preserve">
<style type="text/css">
	.st0{fill:#FFFFFF;}
</style>
<title>ggg</title>
<path class="st0" d="M39.7,19.4c-0.6,0-1.1,0.6-1,1.2c0,0.4,0.3,0.8,0.8,1v0.3H40v-0.3c0.2,0,0.4-0.1,0.5-0.3l0.2,0.1l0.3-0.4
	l-0.2-0.1c0-0.1,0.1-0.2,0.1-0.3C40.9,19.9,40.4,19.4,39.7,19.4C39.7,19.4,39.7,19.4,39.7,19.4z M39.7,20c0.3,0,0.6,0.3,0.6,0.6
	c0,0.3-0.3,0.6-0.6,0.6c-0.3,0-0.6-0.3-0.6-0.6l0,0C39.1,20.3,39.4,20,39.7,20C39.7,20,39.7,20,39.7,20L39.7,20z M38.6,20.9
	l-0.5,0.3l0.3,0.5l0.5-0.3L38.6,20.9z M41.5,21.3l-0.3,0.5l0.5,0.3l0.3-0.5L41.5,21.3z M37.6,21.5l-0.5,0.3l0.3,0.5l0.5-0.3
	L37.6,21.5z M42.5,21.9l-0.3,0.5l0.5,0.3l0.3-0.5L42.5,21.9z M36.7,22.1l-0.5,0.3l0.3,0.5l0.5-0.3L36.7,22.1z M43.4,22.5L43.1,23
	l0.5,0.3l0.3-0.5L43.4,22.5z M39.4,22.5v0.6H40v-0.6H39.4z M35.7,22.7L35.2,23l0.3,0.5l0.5-0.3L35.7,22.7z M44.4,23.1l-0.3,0.5
	l0.5,0.3l0.3-0.5L44.4,23.1z M34.7,23.3l-0.5,0.3l0.3,0.5l0.5-0.3L34.7,23.3z M39.4,23.6v0.6H40v-0.5L39.4,23.6z M45.3,23.6
	l-0.3,0.5l0.5,0.3l0.3-0.5L45.3,23.6z M33.8,23.8l-0.5,0.3l0.3,0.5l0.5-0.3L33.8,23.8z M46.3,24.2L46,24.7l0.5,0.3l0.3-0.5
	L46.3,24.2z M32.8,24.5l-0.5,0.3l0.3,0.5l0.5-0.3L32.8,24.5z M39.4,24.8v0.6H40v-0.6H39.4z M47.3,24.9L47,25.4l0.5,0.3l0.3-0.5
	L47.3,24.9z M31.8,25.1l-0.5,0.3l0.3,0.5l0.5-0.3L31.8,25.1z M48.2,25.5L47.9,26l0.5,0.3l0.3-0.5L48.2,25.5z M30.9,25.7l-0.5,0.3
	l0.3,0.5l0.5-0.3L30.9,25.7z M39.4,25.9v0.6H40v-0.6H39.4z M49.2,26.1l-0.3,0.5l0.5,0.3l0.3-0.5L49.2,26.1z M29.9,26.2l-0.5,0.3
	l0.3,0.5l0.5-0.3L29.9,26.2z M50.2,26.7l-0.3,0.5l0.5,0.3l0.3-0.5L50.2,26.7z M29,26.8l-0.5,0.3l0.3,0.5l0.5-0.3L29,26.8z
	 M39.4,27.1v0.3c-2,0.2-3.5,1.9-3.4,3.9s1.9,3.5,3.9,3.4c2-0.2,3.5-1.9,3.4-3.9c-0.1-1.8-1.6-3.2-3.4-3.4v-0.3L39.4,27.1z
	 M39.7,34.7h-3.1c-1.1,0-2.2,0.7-2.6,1.7h-4.4c-1.3,0-2.3,1-2.3,2.3v5.1L26.9,44l0.3,0.5l0.1-0.1v0.4h6.5V46h5.6v0.6H40V46h5.6v-1.1
	h6.5v-0.3l0.2,0.1l0.3-0.5l-0.5-0.3v-5.2c0-1.3-1.1-2.3-2.3-2.3h-4.4c-0.4-1-1.5-1.7-2.6-1.7H39.7L39.7,34.7z M47.3,36.4
	c1.4,0,2.5-1.1,2.5-2.5c0-1.4-1.1-2.5-2.5-2.5c-1.4,0-2.5,1.1-2.5,2.5C44.8,35.3,45.9,36.4,47.3,36.4z M32.1,36.4
	c1.4,0,2.5-1.1,2.6-2.5s-1.1-2.5-2.5-2.6c-1.4,0-2.5,1.1-2.6,2.5C29.5,35.2,30.7,36.4,32.1,36.4C32.1,36.4,32.1,36.4,32.1,36.4z
	 M51.1,27.3l-0.3,0.5l0.5,0.3l0.3-0.5L51.1,27.3z M28,27.5l-0.5,0.3l0.3,0.5l0.5-0.3L28,27.5z M52.1,27.9l-0.3,0.5l0.5,0.3l0.3-0.5
	L52.1,27.9z M39.7,27.9c1.7,0,3.1,1.4,3.1,3.1c0,1.7-1.4,3.1-3.1,3.1c-1.7,0-3.1-1.4-3.1-3.1c0,0,0,0,0,0
	C36.6,29.3,37.9,27.9,39.7,27.9C39.7,27.9,39.7,27.9,39.7,27.9L39.7,27.9z M27,28.1l-0.5,0.3l0.3,0.5l0.5-0.3L27,28.1z M53,28.5
	L52.7,29l0.5,0.3l0.3-0.5L53,28.5z M25,28.5c-0.6,0-1.1,0.5-1.1,1.1c0,0.5,0.3,1,0.9,1.1V31h0.6v-0.4c0.2-0.1,0.4-0.2,0.5-0.3
	l0.3,0.1l0.3-0.5l-0.3-0.1c0.1-0.2,0.1-0.4,0-0.6l0.3-0.2l-0.3-0.5l-0.3,0.2C25.6,28.5,25.3,28.4,25,28.5L25,28.5z M54.4,28.5
	c-0.6,0-1.1,0.5-1.1,1.1c0,0.1,0,0.2,0,0.3L53,30l0.3,0.5l0.3-0.1c0.1,0.2,0.3,0.3,0.5,0.3V31h0.6v-0.3c0.6-0.1,1-0.8,0.8-1.4
	C55.3,28.8,54.9,28.4,54.4,28.5L54.4,28.5z M25,29c0.3,0,0.6,0.3,0.6,0.6c0,0.3-0.3,0.6-0.6,0.6s-0.6-0.3-0.6-0.6l0,0
	C24.5,29.3,24.7,29,25,29C25,29,25,29,25,29z M54.4,29c0.3,0,0.6,0.3,0.6,0.6c0,0.3-0.3,0.6-0.6,0.6c-0.3,0-0.6-0.3-0.6-0.6
	C53.8,29.3,54.1,29,54.4,29C54.4,29,54.4,29,54.4,29L54.4,29z M26.9,30.3l-0.3,0.5l0.5,0.3l0.3-0.5L26.9,30.3z M52.5,30.3L52,30.5
	l0.3,0.5l0.5-0.3L52.5,30.3z M27.9,30.8l-0.3,0.5l0.5,0.3l0.3-0.5L27.9,30.8z M51.6,30.8l-0.5,0.3l0.3,0.5l0.5-0.3L51.6,30.8z
	 M28.9,31.3l-0.3,0.5L29,32l0.3-0.5L28.9,31.3L28.9,31.3z M50.6,31.3l-0.3,0.2l0.3,0.5l0.3-0.2L50.6,31.3z M54.1,31.6v0.6h0.6v-0.6
	H54.1z M24.8,31.6v0.6h0.6v-0.6H24.8z M32.1,31.8c1.1,0,2,0.9,2,2s-0.9,2-2,2c-1.1,0-2-0.9-2-2l0,0C30.1,32.7,31,31.9,32.1,31.8
	L32.1,31.8z M47.3,31.8c1.1,0,2,0.9,2,2s-0.9,2-2,2s-2-0.9-2-2l0,0C45.4,32.7,46.2,31.9,47.3,31.8L47.3,31.8z M54.1,32.7v0.6h0.6
	v-0.6H54.1z M24.8,32.7v0.6h0.6v-0.6H24.8z M54.1,33.8v0.6h0.6v-0.6H54.1z M24.8,33.8v0.6h0.6v-0.6H24.8z M54.1,34.9v0.6h0.6v-0.6
	H54.1z M24.8,34.9v0.6h0.6v-0.6H24.8z M36.6,35.2h6.2c0.9,0,1.7,0.5,2.1,1.3l0.1,0.2c0,0.1,0.1,0.2,0.1,0.4c0,0.1,0,0.3,0,0.4v8
	h-1.9v-6.8h-0.6v6.8h-5.6v-6.8h-0.6v6.8h-2v-7.9l0,0c0-0.1,0-0.3,0-0.4c0-0.1,0.1-0.2,0.1-0.4l0.1-0.2
	C34.9,35.8,35.7,35.2,36.6,35.2L36.6,35.2z M54.1,36v0.6h0.6V36H54.1z M24.8,36v0.6h0.6V36H24.8z M29.6,36.8h4.2
	c0,0.2-0.1,0.4-0.1,0.6l0,0v6.8h-4.2v-4.5H29v4.5h-1.1v-5.5c0-1,0.8-1.8,1.7-1.8c0,0,0,0,0,0L29.6,36.8z M45.6,36.8h4.2
	c1,0,1.8,0.8,1.8,1.7c0,0,0,0,0,0v5.6h-1.1v-4.5h-0.6v4.5h-4.2v-6.6l0,0c0-0.2,0-0.4-0.1-0.6L45.6,36.8z M54.1,37.2v0.6h0.6v-0.6
	H54.1z M24.8,37.2v0.6h0.6v-0.6H24.8z M54.1,38.3v0.5h0.6v-0.6L54.1,38.3z M24.8,38.3v0.5h0.6v-0.6L24.8,38.3z M54.1,39.4V40h0.6
	v-0.6H54.1z M24.8,39.4V40h0.6v-0.6H24.8z M54.1,40.6v0.6h0.6v-0.6H54.1z M24.8,40.6v0.6h0.6v-0.6H24.8z M54.1,41.7v0.6h0.6v-0.6
	H54.1z M24.8,41.7v0.6h0.6v-0.6H24.8z M54.1,42.8v0.6h0.6v-0.6H54.1z M24.8,42.8v0.6h0.6v-0.6H24.8z M54.1,43.9v0.3
	c-0.2,0.1-0.4,0.2-0.5,0.3l-0.4-0.2l-0.3,0.5l0.4,0.2c0,0.1,0,0.2,0,0.3c0,0.1,0,0.2,0.1,0.3l-0.3,0.2l0.3,0.5l0.3-0.2
	c0.4,0.4,1.2,0.4,1.6,0c0.4-0.4,0.4-1.2,0-1.6c-0.1-0.1-0.3-0.2-0.5-0.3v-0.3H54.1L54.1,43.9z M24.8,43.9v0.3
	c-0.6,0.2-1,0.8-0.8,1.4s0.8,1,1.4,0.8c0.3-0.1,0.5-0.2,0.7-0.5l-0.1,0.2l0.5,0.3l0.3-0.5l-0.5-0.3L26,45.9c0.1-0.2,0.2-0.4,0.2-0.6
	c0-0.5-0.3-1-0.8-1.1v-0.3L24.8,43.9z M26.4,44.2l-0.5,0.3l0.3,0.5l0.5-0.3L26.4,44.2z M25,44.7c0.3,0,0.6,0.3,0.6,0.6
	c0,0.3-0.3,0.6-0.6,0.6c-0.3,0-0.6-0.3-0.6-0.6l0,0C24.5,45,24.7,44.8,25,44.7L25,44.7z M54.4,44.7c0.3,0,0.6,0.3,0.6,0.6
	c0,0.3-0.3,0.6-0.6,0.6c-0.3,0-0.6-0.3-0.6-0.6C53.9,45,54.1,44.8,54.4,44.7L54.4,44.7z M52.6,46.2l-0.5,0.3l0.3,0.5l0.5-0.3
	L52.6,46.2z M27.1,46.3l-0.3,0.5l0.5,0.3l0.3-0.5L27.1,46.3z M51.6,46.8l-0.5,0.3l0.3,0.5l0.5-0.3L51.6,46.8z M28.1,46.9l-0.3,0.5
	l0.5,0.3l0.3-0.5L28.1,46.9z M39.4,47.1v0.6H40v-0.6H39.4z M50.6,47.4l-0.5,0.3l0.3,0.5l0.5-0.3L50.6,47.4z M29,47.5L28.7,48
	l0.5,0.3l0.3-0.5L29,47.5z M49.6,48l-0.5,0.3l0.3,0.5l0.5-0.3L49.6,48z M30,48.1l-0.3,0.5l0.5,0.3l0.3-0.5L30,48.1z M39.4,48.2v0.6
	H40v-0.6H39.4z M48.7,48.6l-0.5,0.3l0.3,0.5l0.5-0.3L48.7,48.6z M30.9,48.7l-0.3,0.5l0.5,0.3l0.3-0.5L30.9,48.7z M47.7,49.2
	l-0.5,0.3l0.3,0.5l0.5-0.3L47.7,49.2z M31.9,49.3l-0.3,0.5l0.5,0.3l0.3-0.5L31.9,49.3z M39.4,49.4v0.6H40v-0.6H39.4z M46.8,49.8
	l-0.5,0.3l0.3,0.5l0.5-0.3L46.8,49.8z M32.8,49.9l-0.3,0.5l0.5,0.3l0.3-0.5L32.8,49.9z M45.8,50.4l-0.5,0.3l0.3,0.5l0.5-0.3
	L45.8,50.4z M39.4,50.5V51H40v-0.6H39.4z M33.8,50.5L33.5,51l0.5,0.3l0.3-0.5L33.8,50.5z M44.8,50.9l-0.5,0.3l0.3,0.5l0.5-0.3
	L44.8,50.9z M34.8,51.1l-0.3,0.5l0.5,0.3l0.3-0.5L34.8,51.1z M43.9,51.5l-0.5,0.3l0.3,0.5l0.5-0.3L43.9,51.5z M39.4,51.6v0.6H40
	v-0.6H39.4z M35.8,51.7l-0.3,0.5l0.5,0.3l0.3-0.5L35.8,51.7z M42.9,52.1l-0.5,0.3l0.3,0.5l0.5-0.3L42.9,52.1z M36.7,52.3l-0.3,0.5
	l0.5,0.3l0.3-0.5L36.7,52.3z M42,52.7L41.5,53l0.3,0.5l0.5-0.3L42,52.7z M39.4,52.7v0.6H40v-0.6H39.4z M39.7,53.3
	c-0.3,0-0.6,0.1-0.8,0.3l-0.3-0.2l-0.3,0.5l0.3,0.2c0,0.1,0,0.2,0,0.4c0,0.6,0.5,1.1,1.1,1.1s1.1-0.5,1.1-1.1c0-0.2,0-0.4-0.1-0.5
	l0.1,0.2l0.5-0.3L41,53.3l-0.5,0.3l0.1,0.2C40.4,53.5,40.1,53.3,39.7,53.3L39.7,53.3z M37.7,52.8l-0.3,0.5l0.5,0.3l0.3-0.5
	L37.7,52.8z M39.7,53.8c0.3,0,0.6,0.3,0.6,0.6c0,0.3-0.3,0.6-0.6,0.6s-0.6-0.3-0.6-0.6C39.1,54.1,39.4,53.9,39.7,53.8
	C39.7,53.9,39.7,53.9,39.7,53.8L39.7,53.8z"/>
<path class="st0" d="M54.4,21.1c-0.1,0.1-0.1,0.4,0,0.5c0.5,0.5,1,1,1.4,1.5c8.1,8.9,7.4,22.7-1.6,30.8c0,0,0,0,0,0l0,0
	c-0.1,0.1-0.2,0.4,0,0.5c0.1,0.1,0.4,0.2,0.5,0c0.8-0.7,1.5-1.5,2.2-2.3c7.2-8.6,6.9-21.2-0.6-29.5c-0.5-0.5-1-1-1.5-1.5
	C54.8,20.9,54.6,20.9,54.4,21.1C54.4,21,54.4,21,54.4,21.1L54.4,21.1z"/>
<path class="st0" d="M50.7,18.4c-0.1,0.2,0,0.4,0.1,0.5c0,0,0,0,0,0c0.5,0.3,0.9,0.6,1.4,0.9c0.1,0.1,0.4,0.1,0.5-0.1l0,0
	c0.1-0.1,0.1-0.4,0-0.5c0,0,0,0,0,0c-0.5-0.3-0.9-0.6-1.4-0.9C51,18.2,50.8,18.2,50.7,18.4C50.7,18.4,50.7,18.4,50.7,18.4L50.7,18.4
	z"/>
<path class="st0" d="M26.1,55.1L26.1,55.1c0.1-0.1,0.1-0.4,0-0.5c-0.9-0.7-1.7-1.5-2.5-2.4c-8.1-8.9-7.4-22.7,1.6-30.8
	c1.7-1.5,3.6-2.8,5.6-3.7c0.2-0.1,0.2-0.3,0.1-0.5c-0.1-0.1-0.3-0.2-0.4-0.2l0,0c-11.3,5.1-16.4,18.5-11.2,29.8
	c1.5,3.2,3.6,6,6.4,8.3C25.8,55.3,26,55.3,26.1,55.1z"/>
<path class="st0" d="M28.1,56.5c-0.1,0.2,0,0.4,0.1,0.5c0,0,0,0,0,0c0.5,0.3,1.1,0.6,1.6,0.8c0.1,0.1,0.3,0,0.4-0.1l0.1-0.1
	c0.1-0.2,0-0.4-0.2-0.5c0,0,0,0,0,0l0,0c-0.5-0.3-1-0.5-1.5-0.8C28.5,56.3,28.2,56.3,28.1,56.5C28.1,56.5,28.1,56.5,28.1,56.5
	L28.1,56.5z"/>
</svg>
