<?xml version="1.0" encoding="utf-8"?>
<!-- Generator: Adobe Illustrator 23.0.1, SVG Export Plug-In . SVG Version: 6.00 Build 0)  -->
<svg width="95px" height="95px" version="1.1" id="Layer_1" xmlns="http://www.w3.org/2000/svg" xmlns:xlink="http://www.w3.org/1999/xlink" x="0px" y="0px"
	 viewBox="0 0 75 75" style="enable-background:new 0 0 75 75;" xml:space="preserve">
<style type="text/css">
	.st0{fill:#FFFFFF;}
</style>
<title>ggg</title>
<path class="st0" d="M30.4,15.1c0.1,0.2,0.3,0.3,0.5,0.2l0,0c0.6-0.2,1.3-0.4,2-0.5c11.8-2.3,23.3,5.3,25.6,17.1l0,0
	c0,0.2,0.2,0.3,0.4,0.3s0.3-0.2,0.3-0.4l0,0c-0.2-1-0.5-2.1-0.8-3.1c-3.7-10.6-14.7-16.8-25.7-14.6c-0.7,0.1-1.4,0.3-2.1,0.5
	C30.4,14.6,30.3,14.8,30.4,15.1C30.3,15,30.3,15,30.4,15.1L30.4,15.1z"/>
<path class="st0" d="M26.1,16.9c0.1,0.2,0.3,0.2,0.5,0.1c0.5-0.3,0.9-0.5,1.5-0.7c0.2-0.1,0.2-0.3,0.2-0.4l0,0
	c-0.1-0.2-0.3-0.3-0.5-0.2l0,0c-0.5,0.2-1,0.5-1.5,0.7C26.1,16.5,26,16.8,26.1,16.9L26.1,16.9z"/>
<path class="st0" d="M45.2,56.8L45.2,56.8c-0.1-0.2-0.3-0.3-0.5-0.2l0,0c-1.1,0.4-2.2,0.7-3.3,0.9c-11.8,2.4-23.3-5.3-25.7-17.1
	c-0.4-2.2-0.5-4.5-0.3-6.7c0-0.2-0.1-0.4-0.3-0.4s-0.3,0.1-0.4,0.3l0,0C13.3,46,22.2,57.2,34.6,58.5c3.5,0.4,7,0,10.3-1.3
	C45.1,57.2,45.2,57,45.2,56.8L45.2,56.8z"/>
<path class="st0" d="M47.4,55.8c0.1,0.2,0.3,0.2,0.5,0.1c0.5-0.3,1-0.6,1.5-0.9c0.2-0.1,0.2-0.4,0-0.5c-0.1-0.1-0.3-0.2-0.4-0.1l0,0
	c-0.5,0.3-1,0.6-1.5,0.9C47.4,55.4,47.3,55.6,47.4,55.8L47.4,55.8z"/>
<path class="st0" d="M21.9,23.5v20.3h20.5V23.5H21.9z M41.8,43.2H22.5V24.1h19.3V43.2z"/>
<path class="st0" d="M39.3,28v12.1h12.2V28H39.3z M51,39.6H39.8V28.4H51V39.6z"/>
<path class="st0" d="M29.6,36.9v15.7h15.8V36.9H29.6z M44.9,52.1H30.2V37.4h14.7V52.1z"/>
</svg>
