<?xml version="1.0" encoding="utf-8"?>
<!-- Generator: Adobe Illustrator 22.0.1, SVG Export Plug-In . SVG Version: 6.00 Build 0)  -->
<svg width="75px" height="75px" version="1.1" id="Layer_1" xmlns="http://www.w3.org/2000/svg" xmlns:xlink="http://www.w3.org/1999/xlink" x="0px" y="0px"
	 viewBox="0 0 75 75" style="enable-background:new 0 0 75 75;" xml:space="preserve">
<style type="text/css">
	.st0{fill:#FFFFFF;}
</style>
<g>
	<path class="st0" d="M30.2,25c-0.1-0.8-0.2-1.4-0.2-2c-1.2,0.5-2.3,1.2-3.1,2.1C27.4,25.3,28.4,25.4,30.2,25z"/>
	<path class="st0" d="M34.4,25c0.3,0.2,0.8,0.9,0.6,1.5c-0.1,0.4-0.1,0.8,0,1.1c0,0.3,0.1,0.5,0.3,0.7c0,0,0.4,0.4,1,0.4
		c0.6,0,1-0.4,1-0.4c0.2-0.2,0.3-0.5,0.3-0.7c0-0.4,0.1-0.8,0-1.1c-0.2-0.6,0.3-1.3,0.6-1.5c0,0,0.8-0.6,3.9-0.1
		c0.1-0.6,0.2-1.1,0.3-1.5c-0.8-0.4-1.7-0.8-2.5-1c-1.1-0.3-2.3-0.5-3.6-0.5c-1.8,0-3.5,0.3-5.2,0.8c-0.3,0.1-0.6,0.2-0.9,0.3
		c0,0.5,0.1,1.1,0.3,2C33.6,24.4,34.4,25,34.4,25z"/>
	<path class="st0" d="M30.3,44.6c0.2-0.3,0.9-0.8,1.5-0.6c0.4,0.1,0.8,0.1,1.1,0c0.3,0,0.5-0.1,0.7-0.3c0,0,0.4-0.4,0.4-1
		s-0.4-1-0.4-1c-0.2-0.2-0.5-0.3-0.7-0.3c-0.4,0-0.8-0.1-1.1,0c-0.6,0.2-1.3-0.3-1.5-0.6c0,0-0.6-0.8-0.1-3.9c-4.5-1.1-4.1,1-4.1,1
		c0,0.5,0.1,0.8,0,1.4c0,0.3-0.2,0.6-0.4,0.9c0,0-0.5,0.5-1.3,0.5c-0.1,0-0.2,0-0.3,0c0,0.1,0,0.1,0,0.3c-0.1,0.4,0,0.5,0,0.9
		c0,0,0.1,0.3,0.4,0.3v0.1c-0.1,0.2-0.2,0.4-0.3,0.5c0,0.2,0,0.5,0.3,0.7c0,0,0,0,0.1,0.1c0.3,0.3,0.4,0.9,0.4,1.3c0,0,0,0,0,0.1
		c0,0.1,0,0.1,0,0.3c0,1,0.2,1.6,0.9,1.9c0.1,0,0.2,0.1,0.3,0.1c0.2,0.1,0.4,0.1,0.7,0.1c1,0.1,2.1,0,3.1-0.1c0,0,0,0,0.1,0
		C29.9,45.2,30.3,44.6,30.3,44.6z"/>
	<path class="st0" d="M42,52.6c0,0-0.6-0.8-0.1-3.9c-4.5-1.1-4.1,1-4.1,1c0,0.5,0.1,0.8,0,1.4c0,0.3-0.2,0.6-0.4,0.9
		c0,0-0.5,0.5-1.3,0.5c-0.8,0-1.3-0.5-1.3-0.5c-0.2-0.2-0.3-0.6-0.4-0.9c-0.1-0.6,0-0.9,0-1.4c0,0,0.4-1.7-2.9-1.2c0.4,1,0.8,2,1,3
		c0.1,0.4,0.1,0.8,0.3,1.2c-0.1,0.4-0.2,0.8-0.4,1.1c1.1,0.2,2.2,0.3,3.4,0.3c0.1,0,0.1,0,0.2,0c2.2,0,4.3-0.4,6.2-1.2
		C42.3,52.9,42.1,52.7,42,52.6z"/>
	<path class="st0" d="M24.5,40.4c0.6,0,1-0.4,1-0.4c0.2-0.2,0.3-0.5,0.3-0.7c0-0.4,0.1-0.8,0-1.1c-0.2-0.6,0.3-1.3,0.6-1.5
		c0,0,0.8-0.6,3.9-0.1c1.1-4.5-1-4.1-1-4.1c-0.5,0-0.8,0.1-1.4,0c-0.3,0-0.6-0.2-0.9-0.4c0,0-0.5-0.5-0.5-1.3c0-0.8,0.5-1.3,0.5-1.3
		c0.2-0.2,0.6-0.3,0.9-0.4c0.6-0.1,0.9,0,1.4,0c0,0,2,0.5,1-4.1c-2.2,0.3-3.2,0.1-3.6,0c-0.5,0.7-0.9,1.3-1.2,2
		c-0.4,0.8-0.6,1.7-0.9,2.5c-0.1,0.3-0.1,0.5-0.2,0.7c0,0.2,0,0.3,0,0.5c0,0.4,0.2,0.8,0.2,1.2c0,0.5,0.1,1.1-0.1,1.5
		c-0.5,1-1.2,2-1.8,3c0,0.1-0.1,0.2-0.1,0.3c-0.1,0.2-0.2,0.4-0.3,0.6c-0.4,0.8-0.3,1.2,0.4,1.6c0.1,0.1,0.3,0.1,0.4,0.2
		c0.1,0,0.2,0.1,0.3,0.1c0,0,0.1,0,0.1,0c0.6,0.3,0.9,0.5,0.9,1C24.3,40.4,24.4,40.4,24.5,40.4z"/>
	<path class="st0" d="M34.4,48.5c0.3,0.2,0.8,0.9,0.6,1.5c-0.1,0.4-0.1,0.8,0,1.1c0,0.3,0.1,0.5,0.3,0.7c0,0,0.4,0.4,1,0.4
		c0.6,0,1-0.4,1-0.4c0.2-0.2,0.3-0.5,0.3-0.7c0-0.4,0.1-0.8,0-1.1c-0.2-0.6,0.3-1.3,0.6-1.5c0,0,0.8-0.6,3.9-0.1
		c1.1-4.5-1-4.1-1-4.1c-0.5,0-0.8,0.1-1.4,0c-0.3,0-0.6-0.2-0.9-0.4c0,0-0.5-0.5-0.5-1.3c0-0.8,0.5-1.3,0.5-1.3
		c0.2-0.2,0.6-0.3,0.9-0.4c0.6-0.1,0.9,0,1.4,0c0,0,2,0.5,1-4.1c-3,0.5-3.8-0.1-3.8-0.1c-0.3-0.2-0.8-0.9-0.6-1.5
		c0.1-0.4,0.1-0.8,0-1.1c0-0.3-0.1-0.5-0.3-0.7c0,0-0.4-0.4-1-0.4s-1,0.4-1,0.4c-0.2,0.2-0.3,0.5-0.3,0.7c0,0.4-0.1,0.8,0,1.1
		c0.2,0.6-0.3,1.3-0.6,1.5c0,0-0.8,0.6-3.9,0.1c-1.1,4.5,1,4.1,1,4.1c0.5,0,0.8-0.1,1.4,0c0.3,0,0.6,0.2,0.9,0.4
		c0,0,0.5,0.5,0.5,1.3S33.8,44,33.8,44c-0.2,0.2-0.6,0.3-0.9,0.4c-0.6,0.1-0.9,0-1.4,0c0,0-1.7-0.4-1.2,2.8c0.5,0,1,0.1,1.2,0.6
		c0.1,0.1,0.1,0.3,0.2,0.5C33.8,48.1,34.4,48.5,34.4,48.5z"/>
	<path class="st0" d="M44.9,25.2c-0.7-0.7-1.5-1.3-2.4-1.8c0,0.4-0.1,0.9-0.1,1.4C43.5,25.2,44.3,25.3,44.9,25.2z"/>
	<path class="st0" d="M46.5,48.3c-0.1,0.2-0.3,0.4-0.4,0.4c0,0-0.8,0.6-3.9,0.1c-0.7,3,0,3.8,0.5,4c1.8-0.8,3.5-1.8,5-3.1
		C47.2,49.1,46.8,48.6,46.5,48.3z"/>
	<path class="st0" d="M46.3,48.1c-0.1-0.1-0.1-0.2-0.1-0.2c-0.7-1-0.7-1.4-0.7-1.4c-0.4-1.5-0.5-2.7-0.6-3.7c0-1.8,0.4-3.4,1.3-5.5
		c-0.4-0.5-1.3-0.9-3.9-0.3c0.4,3.1-0.1,3.9-0.1,3.9c-0.2,0.3-0.9,0.8-1.5,0.6c-0.4-0.1-0.8-0.1-1.1,0c-0.3,0-0.5,0.1-0.7,0.3
		c0,0-0.4,0.4-0.4,1s0.4,1,0.4,1c0.2,0.2,0.5,0.3,0.7,0.3c0.4,0,0.8,0.1,1.1,0c0.6-0.2,1.3,0.3,1.5,0.6c0,0,0.6,0.8,0.1,3.9
		C45.2,49.1,46.1,48.6,46.3,48.1z"/>
	<path class="st0" d="M43.3,29.4c0.5,0,0.8-0.1,1.4,0c0.3,0,0.6,0.2,0.9,0.4c0,0,0.5,0.5,0.5,1.3c0,0.8-0.5,1.3-0.5,1.3
		c-0.2,0.2-0.6,0.3-0.9,0.4c-0.6,0.1-0.9,0-1.4,0c0,0-2-0.5-1,4.1c3.1-0.4,3.9,0.1,3.9,0.1c0.1,0,0.1,0.1,0.3,0.2
		c0.1-0.3,0.3-0.5,0.4-0.8c0.7-1.4,1-3.1,1-4.7c0-0.2,0-0.4,0-0.5c-0.1-2.3-1.1-4.1-2.6-5.6c-0.6,0.1-1.5,0.1-2.8-0.1
		C41.2,29.8,43.3,29.4,43.3,29.4z"/>
	<path class="st0" d="M58.4,38.3c-0.2,0-0.4,0.2-0.4,0.4l0,0c0,0.7-0.1,1.4-0.2,2c-1.6,11.9-12.6,20.2-24.5,18.6l0,0l0,0
		c-0.2,0-0.4,0.1-0.4,0.3S33,60,33.2,60c1,0.1,2.1,0.2,3.2,0.2c11.2,0,20.7-8.3,22.3-19.4c0.1-0.7,0.2-1.4,0.2-2.1
		C58.8,38.5,58.7,38.3,58.4,38.3L58.4,38.3z"/>
	<path class="st0" d="M58.1,33.7c-0.2,0-0.3,0.2-0.3,0.4c0.1,0.5,0.2,1.1,0.2,1.6c0,0.2,0.2,0.3,0.4,0.3l0,0c0.2,0,0.3-0.2,0.3-0.4
		c0-0.6-0.1-1.1-0.2-1.6C58.5,33.8,58.3,33.7,58.1,33.7L58.1,33.7z"/>
	<path class="st0" d="M14.1,38.5L14.1,38.5c0.2,0,0.4-0.2,0.4-0.4l0,0c0-1.2,0-2.3,0.2-3.5C16.4,22.7,27.4,14.4,39.3,16
		c2.2,0.3,4.4,1,6.5,2c0.2,0.1,0.4,0,0.5-0.2c0.1-0.2,0-0.3-0.1-0.4l0,0C35,12,21.5,16.7,16.1,27.9c-1.5,3.2-2.3,6.7-2.2,10.2
		C13.8,38.3,14,38.4,14.1,38.5z"/>
	<path class="st0" d="M14.4,40.9c-0.2,0-0.3,0.2-0.3,0.4c0.1,0.6,0.2,1.2,0.4,1.8c0,0.2,0.2,0.3,0.4,0.3H15c0.2,0,0.3-0.2,0.3-0.4
		l0,0c-0.1-0.6-0.3-1.1-0.4-1.7C14.8,41,14.6,40.9,14.4,40.9L14.4,40.9z"/>
</g>
</svg>
