<svg width="75px" height="75px" id="Layer_1" data-name="Layer 1" xmlns="http://www.w3.org/2000/svg" viewBox="0 0 54.53 61.98"><title>design-thinking</title><path d="M54.53,0,48.71,4.36,42.87,18h-4.7l-1.85-4h1.21a4,4,0,0,0,4-4V6h2V0h-6V6h2v4a2,2,0,0,1-2,2H35.4L32.84,6.46,35.9,4.93l-10-4.3L23.52,8.88a9,9,0,1,0-14,7.59V18H7.1L7,18.81a22.55,22.55,0,0,0-.14,7.69L0,38.66l7.54,1.72V53h10v9h24V48.05a26.36,26.36,0,0,0,11-21.41V23a23.61,23.61,0,0,0-.38-4.17L52,18H50l4.5-10.8Zm-15,2h2V4h-2Zm13,3.38-1.11-.55L52.53,4ZM36,18H32.17l-1.82-4h3.77Zm-7.8-4L30,18H25.53V16a2,2,0,0,1,2-2Zm-1-10.63,4,1.7-.94.47,3,6.46H29.44L27,6.64l-.9.45Zm-1.13,6L27.26,12a4,4,0,0,0-3.73,4v2h-4V16.47a9,9,0,0,0,3.81-5.76ZM11,15.05a7,7,0,1,1,7,0l-.5.28V18h-2V11.82a3,3,0,1,0-2,0V18h-2V15.34ZM13.53,9a1,1,0,1,1,1,1A1,1,0,0,1,13.53,9Zm37,14v3.65A24.33,24.33,0,0,1,40,46.7l-.43.3V60h-20V51h-10V38.78L3.05,37.3,8.9,26.87l-.06-.35A20.68,20.68,0,0,1,8.77,20H50.31A21.58,21.58,0,0,1,50.52,23ZM45,18,50,6.37l2.21,1.11L47.86,18Z"/><path d="M16.53,26a3,3,0,0,1-3-3h-2a5,5,0,1,0,10,0h-2A3,3,0,0,1,16.53,26Z"/></svg>
