<?xml version="1.0" encoding="utf-8"?>
<!-- Generator: Adobe Illustrator 23.0.1, SVG Export Plug-In . SVG Version: 6.00 Build 0)  -->
<svg width="75px" height="75px" version="1.1"
	 id="Layer_1" xmlns:cc="http://creativecommons.org/ns#" xmlns:dc="http://purl.org/dc/elements/1.1/" xmlns:inkscape="http://www.inkscape.org/namespaces/inkscape" xmlns:rdf="http://www.w3.org/1999/02/22-rdf-syntax-ns#" xmlns:sodipodi="http://sodipodi.sourceforge.net/DTD/sodipodi-0.dtd" xmlns:svg="http://www.w3.org/2000/svg"
	 xmlns="http://www.w3.org/2000/svg" xmlns:xlink="http://www.w3.org/1999/xlink" x="0px" y="0px" viewBox="0 0 20.9 19.1"
	 style="enable-background:new 0 0 20.9 19.1;" xml:space="preserve">
<g transform="translate(0,-270.542)">
	<path d="M0,270.5v0.3v18.8h13.8v-5.7c-0.2,0.1-0.3,0.2-0.5,0.3v4.9H0.5v-18h12.7v5.7c0.2,0.1,0.4,0.2,0.5,0.3v-6.5H0z M1.6,272v0.3
		h10.6V272L1.6,272z M1.6,273.3v0.3h10.6v-0.3H1.6z M1.6,274.6v0.3h10.6v-0.3H1.6z M1.6,276v0.3h10.6V276H1.6z M1.6,277.3v0.3h7.5
		c0.1-0.1,0.2-0.2,0.3-0.3H1.6z M1.6,278.6v0.3h6.5c0-0.1,0.1-0.2,0.1-0.3H1.6z M1.6,279.9v0.3h6.2c0-0.1,0-0.2,0-0.3H1.6z
		 M1.6,281.3v0.3H8c0-0.1,0-0.2-0.1-0.3H1.6z M1.6,282.6v0.3h7c-0.1-0.1-0.1-0.2-0.2-0.3H1.6z M1.6,283.9v0.3h8.9
		c-0.2-0.1-0.4-0.2-0.6-0.3H1.6z M1.6,285.2v0.3h10.6v-0.3H1.6z M1.6,286.5v0.3h10.6v-0.3H1.6z M1.6,287.9v0.3h10.6v-0.3H1.6z"/>
	<path d="M11.8,276.2c-1.1,0-2.2,0.4-3,1.2c-1.7,1.7-1.7,4.3,0,6c1.5,1.5,3.8,1.6,5.4,0.4c0.1,0.1,0.7,1.2,1.7,2.6
		c1.1,1.4,2.4,2.9,3.8,3.2c0.4,0.1,0.7-0.1,0.9-0.3c0.2-0.2,0.4-0.6,0.3-0.9c-0.3-1.4-1.8-2.7-3.2-3.8c-1.3-1-2.4-1.6-2.6-1.7
		c1.2-1.7,1.1-3.9-0.4-5.4C13.9,276.6,12.9,276.2,11.8,276.2z M11.8,276.7c0.9,0,1.9,0.4,2.6,1.1c1.4,1.4,1.4,3.8,0,5.2
		c-1.4,1.4-3.8,1.4-5.2,0c-1.4-1.4-1.4-3.8,0-5.2C9.9,277.1,10.8,276.7,11.8,276.7z"/>
	<path d="M13.9,277.1v6.4h0.2c0.2-0.2,0.4-0.4,0.6-0.5v-5.2C14.4,277.5,14.2,277.3,13.9,277.1L13.9,277.1z M9.3,277.2l-0.2,0.5
		l1.5,0.5l0.2-0.5L9.3,277.2z M12.1,277.2l-0.9,0.4l0.2,0.5l0.9-0.4L12.1,277.2z M8.3,278.5L8.1,279l1.5,0.5l0.2-0.5L8.3,278.5z
		 M12,278.5l-1.2,0.7l-0.5-0.2l-0.2,0.5l0.6,0.2l0.1,0l0.1-0.1l1.3-0.8L12,278.5z M8,279.8l-0.1,0.5l1.5,0.4l0.1-0.5L8,279.8z
		 M12,279.8l-1.2,0.7l-0.8-0.2l-0.1,0.5l0.9,0.2l0.1,0l0.1-0.1l1.3-0.8L12,279.8z M8,281.1l-0.1,0.5l1.5,0.4l0.1-0.5L8,281.1z
		 M12,281.2l-1.2,0.7l-0.8-0.2l-0.1,0.5l0.9,0.2l0.1,0l0.1-0.1l1.3-0.8L12,281.2z M8.6,282.5L8.4,283l1.5,0.5l0.2-0.5L8.6,282.5z
		 M12,282.5l-1.2,0.7l-0.3-0.1l-0.2,0.5l0.4,0.1l0.1,0l0.1-0.1l1.3-0.8L12,282.5z"/>
</g>
</svg>
