<?xml version="1.0" encoding="utf-8"?>
<!-- Generator: Adobe Illustrator 23.0.1, SVG Export Plug-In . SVG Version: 6.00 Build 0)  -->
<svg width="75px" height="75px" version="1.1" id="Layer_1" xmlns="http://www.w3.org/2000/svg" xmlns:xlink="http://www.w3.org/1999/xlink" x="0px" y="0px"
	 viewBox="0 0 72.3 90" style="enable-background:new 0 0 72.3 90;" xml:space="preserve">
<path d="M23.2,8.6c-0.3-2.2-0.5-4-0.5-5.5C19.3,4.4,16.4,6.4,14,9C15.5,9.6,18.3,9.8,23.2,8.6z"/>
<path d="M35,8.7c0.9,0.5,2.1,2.4,1.6,4.1c-0.3,1-0.2,2.1-0.1,3.1c0.1,0.7,0.4,1.5,0.9,2c0,0,1.1,1,2.8,1c1.7,0,2.8-1,2.8-1
	c0.5-0.5,0.8-1.3,0.9-2c0.1-1,0.2-2.2-0.1-3.1c-0.5-1.6,0.8-3.5,1.6-4.1c0,0,2.2-1.6,10.8-0.4c0.4-1.6,0.6-3,0.8-4.1
	C54.7,3,52.4,2,50.1,1.3C46.9,0.4,43.6,0,40.2,0c-4.9,0-9.7,0.8-14.5,2.1c-0.8,0.2-1.6,0.5-2.4,0.7c0.1,1.4,0.3,3.2,0.9,5.5
	C32.8,7.1,35,8.7,35,8.7z"/>
<path d="M23.5,63.3c0.5-0.9,2.4-2.1,4.1-1.6c1,0.3,2.1,0.2,3.1,0.1c0.7-0.1,1.5-0.4,2-0.9c0,0,1-1.1,1-2.8c0-1.7-1-2.8-1-2.8
	c-0.5-0.5-1.3-0.8-2-0.9c-1-0.1-2.2-0.2-3.1,0.1c-1.6,0.5-3.5-0.8-4.1-1.6c0,0-1.6-2.2-0.4-10.8c-12.5-3-11.3,2.7-11.3,2.7
	c0,1.3,0.4,2.2,0.1,3.9c-0.1,0.8-0.5,1.8-1.1,2.4c0,0-1.4,1.3-3.5,1.3c-0.3,0-0.6,0-0.9-0.1c0,0.2-0.1,0.4-0.1,0.7
	c-0.2,1,0,1.5,0.1,2.6c0,0,0.2,0.9,1,0.8v0.2c-0.4,0.5-0.6,1-0.7,1.5c-0.1,0.6,0.1,1.3,0.7,2c0.1,0.1,0.1,0.1,0.2,0.2
	c0.7,0.8,1.1,2.5,1,3.7c0,0.1,0,0.1,0,0.2c0,0.2,0,0.4,0,0.7c0,2.9,0.6,4.5,2.6,5.4c0.2,0.1,0.5,0.2,0.8,0.3
	c0.5,0.2,1.2,0.3,1.9,0.3c2.8,0.3,5.9-0.1,8.7-0.3c0.1,0,0.1,0,0.2,0C22.4,64.9,23.5,63.3,23.5,63.3z"/>
<path d="M56.3,85.6c0,0-1.6-2.2-0.4-10.8c-12.5-3-11.3,2.7-11.3,2.7c0,1.3,0.4,2.2,0.1,3.9c-0.1,0.8-0.5,1.8-1.1,2.4
	c0,0-1.4,1.3-3.5,1.3c-2.1,0-3.5-1.3-3.5-1.3c-0.6-0.6-0.9-1.6-1.1-2.4c-0.3-1.6,0.1-2.6,0.1-3.9c0,0,1-4.7-8.2-3.3
	c1,2.8,2.1,5.6,2.9,8.4c0.3,1,0.4,2.2,0.7,3.4c-0.2,1.1-0.6,2.1-1,3c3.1,0.6,6.2,0.9,9.5,0.9c0.2,0,0.4,0,0.5,0
	c6.1-0.1,11.9-1.2,17.2-3.3C56.9,86.4,56.5,86,56.3,85.6z"/>
<path d="M7.5,51.6c1.7,0,2.8-1,2.8-1c0.5-0.5,0.8-1.3,0.9-2c0.1-1,0.2-2.2-0.1-3.1c-0.5-1.6,0.8-3.5,1.6-4.1c0,0,2.2-1.6,10.8-0.4
	c3-12.5-2.7-11.3-2.7-11.3c-1.3,0-2.2,0.4-3.9,0.1c-0.8-0.1-1.8-0.5-2.4-1.1c0,0-1.3-1.4-1.3-3.5c0-2.1,1.3-3.5,1.3-3.5
	c0.6-0.6,1.6-0.9,2.4-1.1c1.6-0.3,2.6,0.1,3.9,0.1c0,0,5.7,1.3,2.7-11.3c-6,0.9-8.9,0.3-10.1-0.1C12.1,11.2,11,13,10.1,15
	c-1,2.2-1.8,4.6-2.6,6.9c-0.2,0.7-0.4,1.3-0.6,2c-0.1,0.5-0.1,0.9,0,1.4c0.1,1.1,0.5,2.3,0.5,3.4c0,1.4,0.2,3.2-0.4,4.3
	c-1.5,2.8-3.3,5.6-4.9,8.3c-0.1,0.2-0.3,0.5-0.4,0.7c-0.3,0.5-0.6,1.1-0.9,1.6c-1.2,2.1-0.8,3.3,1.2,4.4c0.4,0.2,0.7,0.4,1,0.5
	c0.3,0.1,0.6,0.2,0.9,0.3c0.1,0,0.2,0,0.2,0.1c1.8,0.7,2.5,1.3,2.5,2.7C6.9,51.6,7.2,51.6,7.5,51.6z"/>
<path d="M35,74.2c0.9,0.5,2.1,2.4,1.6,4.1c-0.3,1-0.2,2.1-0.1,3.1c0.1,0.7,0.4,1.5,0.9,2c0,0,1.1,1,2.8,1c1.7,0,2.8-1,2.8-1
	c0.5-0.5,0.8-1.3,0.9-2c0.1-1,0.2-2.2-0.1-3.1c-0.5-1.6,0.8-3.5,1.6-4.1c0,0,2.2-1.6,10.8-0.4c3-12.5-2.7-11.3-2.7-11.3
	c-1.3,0-2.2,0.4-3.9,0.1c-0.8-0.1-1.8-0.5-2.4-1.1c0,0-1.3-1.4-1.3-3.5c0-2.1,1.3-3.5,1.3-3.5c0.6-0.6,1.6-0.9,2.4-1.1
	c1.6-0.3,2.6,0.1,3.9,0.1c0,0,5.7,1.3,2.7-11.3C47.7,43.7,45.5,42,45.5,42c-0.9-0.5-2.1-2.4-1.6-4.1c0.3-1,0.2-2.1,0.1-3.1
	c-0.1-0.7-0.4-1.5-0.9-2c0,0-1.1-1-2.8-1c-1.7,0-2.8,1-2.8,1c-0.5,0.5-0.8,1.3-0.9,2c-0.1,1-0.2,2.2,0.1,3.1
	c0.5,1.6-0.8,3.5-1.6,4.1c0,0-2.2,1.6-10.8,0.4c-3,12.5,2.7,11.3,2.7,11.3c1.3,0,2.2-0.4,3.9-0.1c0.8,0.1,1.8,0.5,2.4,1.1
	c0,0,1.3,1.4,1.3,3.5c0,2.1-1.3,3.5-1.3,3.5c-0.6,0.6-1.6,0.9-2.4,1.1c-1.6,0.3-2.6-0.1-3.9-0.1c0,0-4.6-1-3.4,7.8
	c1.5-0.1,2.7,0.2,3.3,1.8c0.2,0.4,0.3,0.8,0.5,1.3C33.3,73,35,74.2,35,74.2z"/>
<path d="M64.3,9.4c-2-1.9-4.3-3.5-6.6-4.9c-0.1,1.2-0.2,2.5-0.4,4C60.4,9.4,62.7,9.6,64.3,9.4z"/>
<path d="M68.8,73.6c-0.3,0.5-0.7,1-1.1,1.2c0,0-2.2,1.6-10.8,0.4c-2,8.4-0.1,10.6,1.4,11.1c5.1-2.1,9.8-5.1,13.9-8.7
	C70.8,75.9,69.6,74.5,68.8,73.6z"/>
<path d="M68.3,73c-0.2-0.3-0.4-0.5-0.4-0.5c-1.9-2.9-1.9-4-1.9-4c-1-4.1-1.5-7.4-1.6-10.4c-0.1-5.1,1-9.4,3.6-15.3
	c-1-1.3-3.6-2.4-10.8-0.7c1.2,8.6-0.4,10.8-0.4,10.8c-0.5,0.9-2.4,2.1-4.1,1.6c-1-0.3-2.1-0.2-3.1-0.1c-0.7,0.1-1.5,0.4-2,0.9
	c0,0-1,1.1-1,2.8c0,1.7,1,2.8,1,2.8c0.5,0.5,1.3,0.8,2,0.9c1,0.1,2.2,0.2,3.1-0.1c1.6-0.5,3.5,0.8,4.1,1.6c0,0,1.6,2.2,0.4,10.8
	C65.2,76,67.6,74.4,68.3,73z"/>
<path d="M59.7,20.9c1.3,0,2.2-0.4,3.9-0.1c0.8,0.1,1.8,0.5,2.4,1.1c0,0,1.3,1.4,1.3,3.5c0,2.1-1.3,3.5-1.3,3.5
	c-0.6,0.6-1.6,0.9-2.4,1.1c-1.6,0.3-2.6-0.1-3.9-0.1c0,0-5.7-1.3-2.7,11.3c8.6-1.2,10.8,0.4,10.8,0.4c0.2,0.1,0.4,0.3,0.7,0.6
	c0.3-0.7,0.7-1.5,1-2.2c1.9-3.9,2.8-8.6,2.8-13c0-0.5,0-1-0.1-1.4C71.8,19.3,69,14.1,64.9,10c-1.7,0.2-4.2,0.2-7.9-0.4
	C54,22.2,59.7,20.9,59.7,20.9z"/>
</svg>
