<?xml version="1.0" encoding="utf-8"?>
<!-- Generator: Adobe Illustrator 23.0.1, SVG Export Plug-In . SVG Version: 6.00 Build 0)  -->
<svg width="75px" height="75px" version="1.1" id="Layer_1" xmlns="http://www.w3.org/2000/svg" xmlns:xlink="http://www.w3.org/1999/xlink" x="0px" y="0px"
	 viewBox="0 0 75 75" style="enable-background:new 0 0 75 75;" xml:space="preserve">
<style type="text/css">
	.st0{fill:#FFFFFF;}
</style>
<title>ggg</title>
<path class="st0" d="M56.1,14.9c-3.2,0-6,2-7.1,5.1c0,0.1-0.1,0.2-0.1,0.3c0,0.2,0.1,0.4,0.3,0.4c0.2,0,0.3-0.1,0.4-0.2l0.1-0.3
	c1.3-3.6,5.2-5.4,8.7-4.2c3.6,1.3,5.4,5.2,4.2,8.7c-1.2,3.5-5,5.4-8.5,4.2l-0.3-0.1c-0.2-0.1-0.4,0-0.5,0.2c-0.1,0.2,0,0.4,0.2,0.5
	l0,0l0.3,0.1c4,1.3,8.2-0.9,9.5-4.9c0.9-2.8,0.1-5.9-2.1-7.9l0.9-1.1l0.5,0.4c0.2,0.1,0.4,0.1,0.5-0.1c0.1-0.1,0.1-0.3,0-0.4
	l-0.8-0.6l0,0l-0.8-0.7c-0.2-0.1-0.4-0.1-0.5,0.1c-0.1,0.1-0.1,0.3,0,0.4l0,0l0.5,0.4l-0.9,1.1C59.2,15.5,57.7,14.9,56.1,14.9z"/>
<path class="st0" d="M54,14.6h4.1c0.2,0,0.4-0.2,0.4-0.4l0,0v-1.1c0-0.2-0.2-0.4-0.4-0.4l0,0H54c-0.2,0-0.4,0.2-0.4,0.4c0,0,0,0,0,0
	v1.1C53.7,14.4,53.8,14.6,54,14.6C54,14.6,54,14.6,54,14.6z M54.4,13.4h3.4v0.5h-3.4V13.4z"/>
<path class="st0" d="M30.9,44.9c-0.1,1,1,1.8,1.8,2.1c1.2,0.1,2.5,0,3.7-0.2c0.8,1.6,1.4,3.4,1.8,5.1c0,0.1,0.1,0.2,0.2,0.2
	c0.4,0.1,0.7,0.1,1.1,0.1c2.5,0,4.9-0.3,7.3-0.8c1.9-0.5,6.8-3.3,6.6-4.3c-0.1-0.5-0.7-0.8-1.7-1.4c-0.6-0.3-1.1-0.6-1.5-1
	c-0.5-1-0.7-2.1-0.6-3.2c0.3-1.2,0.7-2.4,1.2-3.6c0.9-2.3,1.9-4.9,2.1-6.4c0.3-3.2-0.6-7.6-4-10.3c-3-2.4-11.4-5.4-16.9,1.3
	c-1,1.2-2.2,2.8-2.3,4c0,0-0.2,5.3,0.2,5.8l0.2,0.2c0.2,0.2,0.4,0.5,0.4,0.7c0,0.2-0.2,0.7-1.7,3.3l-0.1,0.2
	c-0.3,0.6-0.1,1.3,0.3,1.7c0.3,0.2,0.5,0.3,0.8,0.4c0.2,0.1,0.4,0.1,0.7,0.2c0,0.3-0.1,0.7-0.2,1c-0.3,0.5,0.3,0.9,0.8,1.2l0.1,0.1
	c-0.1,0.1-0.2,0.3-0.3,0.5c-0.1,0.2,0.1,0.4,0.2,0.6c0.1,0.1,0.2,0.3,0.2,0.5c0,0.5,0,1-0.1,1.5L30.9,44.9z M30.7,40.3
	c0.2-0.5,0.3-0.9,0.2-1.4c-0.1-0.4-0.5-0.5-1.1-0.7c-0.2-0.1-0.4-0.1-0.6-0.2c-0.2-0.2-0.2-0.5-0.1-0.8l0.1-0.2
	c1.6-3,1.8-3.4,1.8-3.7c-0.1-0.4-0.3-0.8-0.6-1.1l-0.1-0.2c-0.1-1.8-0.1-3.6,0-5.4c0.1-0.7,0.8-2,2.1-3.6c5.2-6.3,13.1-3.5,15.9-1.2
	c3.1,2.5,4,6.6,3.7,9.7c-0.1,1.3-1.2,4-2,6.2c-0.6,1.2-1,2.5-1.3,3.8c0,0.7,0,2.7,0.8,3.6c0.5,0.5,1.1,0.9,1.7,1.2
	c0.5,0.2,0.9,0.5,1.3,0.9c-0.3,0.6-3.9,3-6,3.6c-2.5,0.5-5.1,0.8-7.7,0.8c-0.4-1.5-1.6-5.3-2.2-5.5c-0.1,0-0.3,0-0.4,0.1
	c-1.1,0.2-2.2,0.3-3.3,0.2c-0.6-0.2-1.4-0.7-1.3-1.3l0.1-0.5c0.1-0.6,0.2-1.2,0.1-1.8c-0.1-0.2-0.2-0.4-0.3-0.6l-0.1-0.1
	c0-0.1,0.1-0.1,0.2-0.2c0.1-0.1,0.2-0.3,0.2-0.4c0-0.1-0.1-0.3-0.2-0.4c-0.1-0.1-0.2-0.2-0.4-0.3C31,40.5,30.9,40.4,30.7,40.3
	L30.7,40.3z"/>
<path class="st0" d="M37.2,33.5c0.3,0.4,0.5,0.8,0.7,1.2c0.1,0.4,0.2,0.7,0.2,1c0.1,0.3,0.2,0.7,0.3,1c0,0,0,0.1,0,0.1v1.6
	c0,1.4,1.1,2.5,2.5,2.5c1.4,0,2.5-1.1,2.5-2.5v-1.6c0,0,0,0,0-0.1c0.1-0.3,0.2-0.7,0.3-1c0.1-0.3,0.1-0.6,0.2-1
	c0.2-0.4,0.4-0.8,0.6-1.2c0.9-1.2,1.4-2.6,1.5-4.1c-0.1-2.9-2.5-5.1-5.4-5c-2.7,0.1-4.9,2.3-5,5C35.8,30.9,36.3,32.3,37.2,33.5z
	 M40.9,40.2c-0.8,0-1.5-0.5-1.7-1.2c0.5,0.1,1,0.1,1.5,0.1c0.2,0,0.4-0.2,0.4-0.4s-0.2-0.4-0.4-0.4c-0.6,0-1.1-0.1-1.6-0.1v-1
	c0.3,0.1,0.7,0.1,1.1,0.1l0,0c0.2,0,0.5,0,0.7,0c0.2,0,0.5,0,0.7,0l0,0c0.5,0,0.9-0.1,1.1-0.1v1.1C42.7,39.4,41.9,40.2,40.9,40.2
	L40.9,40.2z M40.4,33l-1.1-2.8l1.6-0.6l1.5,0.6L41.3,33c0,0,0,0.1,0,0.1v3.6h-0.8v-3.6C40.5,33.1,40.5,33,40.4,33z M40.9,25.1
	c2.4,0,4.4,1.9,4.5,4.3c-0.1,1.3-0.6,2.6-1.4,3.7c-0.3,0.4-0.6,0.9-0.7,1.4c-0.1,0.4-0.2,0.7-0.2,1.1c0,0.3-0.1,0.7-0.3,1
	c-0.1,0-0.4,0.1-0.8,0.1v-3.5l1.2-3l0,0l0.2-0.5c0.1-0.2,0-0.4-0.2-0.4c-0.2-0.1-0.3,0-0.4,0.2l-0.1,0.2L41,28.9c-0.1,0-0.2,0-0.3,0
	L39,29.6L39,29.4c-0.1-0.2-0.3-0.2-0.5-0.1c-0.1,0.1-0.2,0.3-0.2,0.4l1.5,3.6v3.4c-0.3,0-0.6-0.1-0.7-0.1c-0.1-0.3-0.2-0.6-0.3-1
	c-0.1-0.3-0.1-0.7-0.2-1.1c-0.2-0.5-0.4-1-0.8-1.4c-0.8-1.1-1.3-2.4-1.4-3.7C36.5,27,38.5,25.1,40.9,25.1z"/>
<path class="st0" d="M32.6,30h1.3c0.2,0,0.4-0.2,0.4-0.4s-0.2-0.4-0.4-0.4h-1.3c-0.2,0-0.4,0.2-0.4,0.4S32.4,30,32.6,30z"/>
<path class="st0" d="M47.9,30h1.3c0.2,0,0.4-0.2,0.4-0.4s-0.2-0.4-0.4-0.4h-1.3c-0.2,0-0.4,0.2-0.4,0.4S47.7,30,47.9,30z"/>
<path class="st0" d="M40.8,23.1c0.2,0,0.4-0.2,0.4-0.4l0,0v-1.3c0-0.2-0.2-0.4-0.4-0.4c-0.2,0-0.4,0.2-0.4,0.4v1.3
	C40.5,22.9,40.6,23.1,40.8,23.1L40.8,23.1z"/>
<path class="st0" d="M35.7,25c0.1,0.2,0.4,0.2,0.5,0.1c0.2-0.1,0.2-0.4,0.1-0.5c0,0,0,0,0,0l-0.9-0.9c-0.2-0.1-0.4-0.1-0.5,0
	c-0.1,0.1-0.1,0.3,0,0.4L35.7,25z"/>
<path class="st0" d="M46,34.4c-0.2-0.1-0.4-0.1-0.5,0.1c-0.1,0.1-0.1,0.3,0,0.4l0.9,0.9c0.2,0.1,0.4,0.1,0.5-0.1
	c0.1-0.1,0.1-0.3,0-0.4L46,34.4z"/>
<path class="st0" d="M45.7,25.1c0.1,0,0.2,0,0.2-0.1l0.9-0.9c0.1-0.2,0.1-0.4-0.1-0.5c-0.1-0.1-0.3-0.1-0.4,0l-0.9,0.9
	c-0.1,0.1-0.1,0.4,0,0.5C45.6,25.1,45.7,25.1,45.7,25.1L45.7,25.1z"/>
<path class="st0" d="M35,35.8c0.1,0,0.2,0,0.2-0.1l0.9-0.9c0.1-0.2,0.1-0.4-0.1-0.5c-0.1-0.1-0.3-0.1-0.4,0l-0.9,0.9
	c-0.1,0.1-0.1,0.4,0,0.5C34.8,35.8,34.9,35.9,35,35.8L35,35.8z"/>
<path class="st0" d="M31,49.8c0-0.2-0.1-0.3-0.3-0.4l-1.4-0.2c-0.1-0.2-0.2-0.4-0.3-0.6l0.8-1.1c0.1-0.1,0.1-0.3,0-0.5l-1.4-1.4
	c-0.1-0.1-0.3-0.1-0.5,0L27,46.5c-0.2-0.1-0.4-0.2-0.7-0.3l-0.2-1.3c0-0.2-0.2-0.3-0.4-0.3h-2c-0.2,0-0.3,0.1-0.4,0.3l-0.2,1.4
	c-0.2,0.1-0.4,0.2-0.6,0.3l-1.1-0.8c-0.1-0.1-0.3-0.1-0.5,0l-1.4,1.5c-0.1,0.1-0.1,0.3,0,0.5l0.8,1.1c-0.1,0.2-0.2,0.4-0.2,0.6
	l-1.4,0.2c-0.2,0-0.3,0.2-0.3,0.4v2c0,0.2,0.1,0.3,0.3,0.4l1.4,0.2c0.1,0.2,0.2,0.4,0.3,0.6l-0.8,1.1c-0.1,0.1-0.1,0.3,0,0.5
	l1.4,1.4c0.1,0.1,0.3,0.1,0.5,0l1.1-0.8c0.2,0.1,0.4,0.2,0.6,0.2l0.2,1.3c0,0.2,0.2,0.3,0.4,0.3h2c0.2,0,0.3-0.1,0.4-0.3l0.2-1.4
	c0.2-0.1,0.4-0.2,0.6-0.3l1.1,0.8c0.1,0.1,0.3,0.1,0.5,0l1.4-1.4c0.1-0.1,0.1-0.3,0-0.5L29.1,53c0.1-0.2,0.2-0.4,0.2-0.6l1.3-0.2
	c0.2,0,0.3-0.2,0.3-0.4L31,49.8z M30.3,51.5l-1.2,0.2c-0.1,0-0.3,0.1-0.3,0.3c-0.1,0.3-0.2,0.6-0.3,0.9c-0.1,0.1-0.1,0.3,0,0.4
	l0.8,1.1l-1,1l-1-0.8c-0.1-0.1-0.3-0.1-0.4,0c-0.3,0.1-0.5,0.3-0.8,0.4c-0.1,0-0.2,0.2-0.2,0.3l-0.2,1.3h-1.4L24,55.1
	c0-0.1-0.1-0.3-0.3-0.3c-0.3-0.1-0.6-0.2-0.9-0.4c-0.1-0.1-0.3-0.1-0.4,0l-1.1,0.8l-1-1l0.7-1c0.1-0.1,0.1-0.3,0-0.4
	c-0.1-0.3-0.3-0.5-0.4-0.8c0-0.1-0.2-0.2-0.3-0.2l-1.3-0.2v-1.4l1.3-0.2c0.1,0,0.3-0.1,0.3-0.3c0.1-0.3,0.2-0.6,0.4-0.9
	c0.1-0.1,0.1-0.3,0-0.4l-0.8-1.1l0.9-1l1,0.7c0.1,0.1,0.3,0.1,0.4,0c0.3-0.1,0.5-0.3,0.8-0.4c0.1,0,0.2-0.2,0.2-0.3l0.2-1.3h1.4
	l0.2,1.2c0,0.1,0.1,0.3,0.3,0.3c0.3,0.1,0.6,0.2,0.9,0.4c0.1,0.1,0.3,0.1,0.4,0l1.1-0.8l1,1l-0.7,1c-0.1,0.1-0.1,0.3,0,0.4
	c0.1,0.3,0.3,0.5,0.4,0.8c0,0.1,0.2,0.2,0.3,0.2l1.3,0.2L30.3,51.5z"/>
<path class="st0" d="M24.8,48.1c-1.6,0-2.8,1.3-2.8,2.8c0,1.6,1.3,2.8,2.8,2.8c1.6,0,2.8-1.3,2.8-2.8l0,0
	C27.6,49.3,26.4,48.1,24.8,48.1z M24.8,53c-1.2,0-2.1-0.9-2.1-2.1c0-1.2,0.9-2.1,2.1-2.1c1.2,0,2.1,0.9,2.1,2.1
	C26.9,52,26,53,24.8,53C24.8,53,24.8,53,24.8,53z"/>
<path class="st0" d="M35.1,54.2c-0.2-0.6-0.9-0.8-1.4-0.6c-0.6,0.2-0.8,0.9-0.6,1.4c0.2,0.6,0.9,0.8,1.4,0.6
	c0.3-0.1,0.5-0.3,0.6-0.6C35.2,54.7,35.2,54.4,35.1,54.2z M34.3,55c-0.2,0.1-0.4,0-0.5-0.2c-0.1-0.2,0-0.4,0.2-0.5
	c0.2-0.1,0.4,0,0.5,0.2l0,0C34.6,54.7,34.5,54.9,34.3,55L34.3,55z"/>
<path class="st0" d="M37.1,54.3L36.4,54l-0.2-0.6l0.2-0.7c0-0.1,0-0.3-0.1-0.4c-0.6-0.6-1.4-0.9-2.3-0.8c-0.1,0-0.3,0.1-0.3,0.2
	l-0.3,0.7L33,52.6l-0.7-0.2c-0.1,0-0.3,0-0.4,0.1c-0.6,0.6-0.9,1.4-1,2.2c0,0.1,0.1,0.2,0.2,0.3l0.6,0.4l0.3,0.6l-0.2,0.7
	c0,0.1,0,0.3,0.1,0.4c0.6,0.5,1.3,0.8,2.1,0.8h0.1c0.1,0,0.3-0.1,0.3-0.2l0.3-0.7l0.4-0.2l0.7,0.2c0.1,0,0.3,0,0.4-0.1
	c0.6-0.6,0.9-1.4,0.9-2.2C37.3,54.5,37.2,54.4,37.1,54.3z M36,56.2L35.4,56c-0.1,0-0.2,0-0.3,0l-0.7,0.3c-0.1,0-0.1,0.1-0.2,0.2
	L34,57c-0.5,0-1-0.2-1.4-0.5l0.2-0.6c0-0.1,0-0.2,0-0.2l-0.4-0.8c0-0.1-0.1-0.1-0.2-0.2l-0.6-0.3c0.1-0.5,0.3-1,0.6-1.3l0.6,0.2
	c0.1,0,0.2,0,0.3,0l0.7-0.3c0.1,0,0.1-0.1,0.2-0.2l0.3-0.6c0.5,0,1,0.2,1.4,0.5l-0.2,0.6c0,0.1,0,0.2,0,0.2l0.4,0.8
	c0,0.1,0.1,0.1,0.2,0.2l0.6,0.3C36.5,55.3,36.3,55.8,36,56.2L36,56.2z"/>
<path class="st0" d="M63.2,35.9c-0.2,0-0.4,0.2-0.4,0.4l0,0c0,0.7-0.1,1.4-0.2,2C61,50.2,50,58.5,38.1,56.9c0,0,0,0,0,0l0,0
	c-0.2,0-0.4,0.1-0.4,0.3c0,0.2,0.1,0.4,0.3,0.4c1,0.1,2.1,0.2,3.2,0.2c11.2,0,20.7-8.3,22.3-19.4c0.1-0.7,0.2-1.4,0.2-2.1
	C63.6,36.1,63.5,35.9,63.2,35.9L63.2,35.9z"/>
<path class="st0" d="M62.9,31.3c-0.2,0-0.3,0.2-0.3,0.4c0.1,0.5,0.2,1.1,0.2,1.6c0,0.2,0.2,0.3,0.4,0.3l0,0c0.2,0,0.3-0.2,0.3-0.4
	c0-0.6-0.1-1.1-0.2-1.6C63.3,31.4,63.1,31.3,62.9,31.3L62.9,31.3z"/>
<path class="st0" d="M18.9,36.1L18.9,36.1c0.2,0,0.4-0.2,0.4-0.4l0,0c0-1.2,0-2.3,0.2-3.5C21.2,20.3,32.2,12,44.1,13.6
	c2.2,0.3,4.4,1,6.5,2c0.2,0.1,0.4,0,0.5-0.2c0.1-0.2,0-0.3-0.1-0.4l0,0c-11.2-5.4-24.7-0.7-30.1,10.5c-1.5,3.2-2.3,6.7-2.2,10.2
	C18.6,35.9,18.8,36,18.9,36.1z"/>
<path class="st0" d="M19.2,38.5c-0.2,0-0.3,0.2-0.3,0.4c0.1,0.6,0.2,1.2,0.4,1.8c0,0.2,0.2,0.3,0.4,0.3h0.1c0.2,0,0.3-0.2,0.3-0.4
	l0,0c-0.1-0.6-0.3-1.1-0.4-1.7C19.6,38.6,19.4,38.5,19.2,38.5L19.2,38.5z"/>
</svg>
