<?xml version="1.0" encoding="utf-8"?>
<!-- Generator: Adobe Illustrator 23.0.1, SVG Export Plug-In . SVG Version: 6.00 Build 0)  -->
<svg width="75px" height="75px" version="1.1" id="Layer_1" xmlns="http://www.w3.org/2000/svg" xmlns:xlink="http://www.w3.org/1999/xlink" x="0px" y="0px"
	 viewBox="0 0 75 75" style="enable-background:new 0 0 75 75;" xml:space="preserve">
<style type="text/css">
	.st0{fill:#FFFFFF;}
</style>
<title>ggg</title>
<path class="st0" d="M59.1,31.3c-0.2,0-0.3,0.2-0.3,0.4c0.1,0.7,0.2,1.3,0.3,2c1.3,12-7.3,22.7-19.3,24l0,0c-0.2,0-0.3,0.2-0.3,0.4
	s0.2,0.3,0.4,0.3c1.1-0.1,2.1-0.3,3.1-0.6C53.9,55,61,44.7,59.8,33.6c-0.1-0.7-0.2-1.4-0.3-2.1C59.5,31.4,59.4,31.3,59.1,31.3
	C59.2,31.3,59.1,31.3,59.1,31.3L59.1,31.3z"/>
<path class="st0" d="M57.7,26.9c-0.2,0.1-0.2,0.3-0.2,0.4c0.2,0.5,0.4,1,0.6,1.5c0.1,0.2,0.2,0.3,0.4,0.2l0,0
	c0.2-0.1,0.3-0.3,0.2-0.4c-0.2-0.5-0.4-1.1-0.6-1.6C58,26.9,57.8,26.8,57.7,26.9L57.7,26.9z"/>
<path class="st0" d="M16.2,42.3L16.2,42.3c0.2,0,0.3-0.2,0.3-0.4c-0.3-1.1-0.5-2.3-0.6-3.4c-1.3-12,7.3-22.7,19.3-24.1
	c2.3-0.2,4.5-0.1,6.8,0.3c0.2,0,0.4-0.1,0.4-0.3s-0.1-0.3-0.2-0.4l0,0C29.9,11.6,18,19.4,15.5,31.6c-0.7,3.5-0.6,7,0.3,10.4
	C15.9,42.2,16,42.3,16.2,42.3z"/>
<path class="st0" d="M17,44.6c-0.2,0.1-0.3,0.3-0.2,0.5c0.2,0.6,0.5,1.1,0.8,1.6c0.1,0.1,0.2,0.2,0.4,0.2h0.1
	c0.2-0.1,0.2-0.3,0.1-0.5l0,0c-0.3-0.5-0.5-1-0.8-1.6C17.4,44.7,17.2,44.6,17,44.6L17,44.6z"/>
<rect x="21.8" y="18.2" class="st0" width="35.8" height="35.8"/>
<path class="st0" d="M56.1,40.3l-1.6-4.8l-0.6-2.2h-0.1c0.4-0.5,0.6-1.2,0.5-1.9c-0.6-2.7-2-5.2-4.1-7c0.9-1.4,0.5-3.3-1-4.2
	c-1.4-0.9-3.3-0.5-4.2,1s-0.5,3.3,1,4.2c0.2,0.1,0.5,0.3,0.7,0.3l-1,3.6l-3.3,2.2l0,0l0,0L39,34.7h-3.1c1.1-1.3,0.9-3.2-0.4-4.3
	c-1.3-1.1-3.2-0.9-4.3,0.4c-1.1,1.3-0.9,3.2,0.4,4.3L30,39.4c-0.3,0.7-0.2,1.6,0.2,2.2c0.1,0.2,0.3,0.4,0.4,0.5L29,44.9l-2.8,2.8
	c-0.1,0.1-0.1,0.3,0,0.4l1.6,1.6c0.1,0.1,0.3,0.1,0.4,0l3.4-3.4l0,0l2.3-3.3l0,0l1.2,0.1v2.8h-0.8c-0.1,0-0.2,0-0.2,0.1l-3.3,4.4
	L23.4,52c-0.1,0-0.2,0.1-0.2,0.3v0.6h0.6v-0.3l7.1-1.6c0.1,0,0.1-0.1,0.2-0.1l3.3-4.4h5.5c0.1,0,0.2,0,0.2-0.1l4.9-5.5h11.6v-0.6
	L56.1,40.3z M45,22.7c0-1.4,1.1-2.5,2.5-2.5s2.5,1.1,2.5,2.5s-1.1,2.5-2.5,2.5l0,0C46.1,25.2,45,24.1,45,22.7z M31,32.8
	c0-1.4,1.1-2.5,2.5-2.5s2.5,1.1,2.5,2.5c0,1.4-1.1,2.5-2.5,2.5S31,34.2,31,32.8L31,32.8L31,32.8z M31.1,46L28,49.1l-1.3-1.3l2.6-2.6
	v-0.1l1.6-2.7c0.3,0.2,0.7,0.3,1,0.3l1.1,0.1L31.1,46z M35.5,45.9v-3.1c0-0.1-0.1-0.3-0.3-0.3L32,42.3c-1.1-0.1-1.9-1.1-1.8-2.1
	c0-0.2,0.1-0.4,0.1-0.5l1.6-4.2c1,0.6,2.3,0.5,3.3-0.1H39c0.1,0,0.1,0,0.2-0.1l3.1-3.1l0.8,1.7l-3.2,3.7l-6,0.6v0.6l0.7-0.1L34.4,40
	c0,0.1,0,0.3,0.2,0.4l0,0l2.4,0.4c0.4,0.1,0.7,0.4,0.7,0.8V46L35.5,45.9z M44.7,40.3c-0.1,0-0.2,0-0.2,0.1l-4.9,5.5h-1.3v-4.4
	c0-0.7-0.5-1.3-1.2-1.4L35,39.8l0.4-1.3l4.8-0.4c0.1,0,0.1,0,0.2-0.1l3.3-3.9l4.4-2.8l0.1-0.1l0.2-0.4l0.3,1.4l-2.2,2.7
	c0,0,0,0.1-0.1,0.1l-1.1,5.4h-0.6V40.3z M46.1,40.3l1-5.2l2.2-2.7c0.1-0.1,0.1-0.2,0-0.2L48.9,30l0.5-1l-0.5-0.2L47.8,31l-4.1,2.6
	l-0.9-1.7l3.1-2.1c0.1,0,0.1-0.1,0.1-0.2l1.1-3.7h0.3c0.9,0,1.7-0.4,2.3-1c2,1.7,3.3,4.1,3.9,6.7c0.1,0.7-0.1,1.5-0.7,1.9L49.6,36
	c-0.1,0-0.1,0.1-0.1,0.2L49,40.4L46.1,40.3z M51.2,35.4l0.5,2.5l0,0l1,2.4h-3.2l0.5-4L51.2,35.4z M53.2,40.3l-1-2.6L51.7,35l1.5-1.2
	c0.1-0.1,0.1-0.1,0.2-0.2l0.5,2l1.6,4.7H53.2z"/>
<path class="st0" d="M23.4,24.1H34c0.2,0,0.3-0.1,0.3-0.3l0,0c0-1.7-1.4-3-3.1-3c-0.3,0-0.6,0.1-0.9,0.1c-1.6-1.7-4.3-1.7-5.9-0.1
	c-0.8,0.8-1.3,1.9-1.3,3C23.2,24,23.3,24.1,23.4,24.1z M27.3,20.2c1,0,2,0.4,2.7,1.2c0.1,0.1,0.2,0.1,0.3,0.1
	c1.3-0.5,2.7,0.1,3.2,1.3c0.1,0.2,0.2,0.5,0.2,0.7h-10C23.9,21.6,25.5,20.2,27.3,20.2L27.3,20.2z"/>
<rect x="31.8" y="25.8" class="st0" width="0.6" height="0.6"/>
<rect x="34" y="25.8" class="st0" width="0.6" height="0.6"/>
<rect x="36.3" y="25.8" class="st0" width="0.6" height="0.6"/>
</svg>
