<?xml version="1.0" encoding="utf-8"?>
<!-- Generator: Adobe Illustrator 23.0.1, SVG Export Plug-In . SVG Version: 6.00 Build 0)  -->
<svg width="95px" height="95px" version="1.1" id="Layer_1" xmlns="http://www.w3.org/2000/svg" xmlns:xlink="http://www.w3.org/1999/xlink" x="0px" y="0px"
	 viewBox="0 0 75 75" style="enable-background:new 0 0 75 75;" xml:space="preserve">
<style type="text/css">
	.st0{fill:#FFFFFF;}
</style>
<title>ggg</title>
<path class="st0" d="M27.7,29.3v27.1h19.6v-8.1c-0.2,0.1-0.5,0.3-0.8,0.4v7H28.4V30.1h18.1v8.1c0.3,0.1,0.5,0.2,0.8,0.4v-9.2H27.7z
	 M29.9,31.4v0.4H45v-0.4H29.9z M29.9,33.3v0.4H45v-0.4H29.9z M29.9,35.2v0.4H45v-0.4L29.9,35.2z M29.9,37.1v0.4H45v-0.4H29.9z
	 M29.9,38.9v0.4h10.7c0.1-0.1,0.3-0.3,0.4-0.4H29.9z M29.9,40.8v0.4h9.3c0.1-0.1,0.1-0.3,0.2-0.4H29.9z M29.9,42.7v0.4h8.9
	c0-0.1,0-0.3,0-0.4H29.9z M29.9,44.6V45H39c0-0.1-0.1-0.3-0.1-0.4H29.9z M29.9,46.5v0.4h10c-0.1-0.1-0.2-0.2-0.3-0.4H29.9z
	 M29.9,48.3v0.4h12.6c-0.3-0.1-0.6-0.2-0.8-0.4L29.9,48.3z M29.9,50.2v0.4H45v-0.4H29.9z M29.9,52.1v0.4H45v-0.4H29.9z M29.9,54v0.4
	H45V54H29.9z"/>
<path class="st0" d="M44.4,37.4c-3.3,0-6,2.6-6.1,5.9s2.6,6,5.9,6.1c1.3,0,2.5-0.4,3.6-1.1c0.7,1.3,1.6,2.5,2.5,3.6
	c1.5,2,3.4,4.1,5.4,4.6c0.9,0.1,1.7-0.6,1.8-1.5c0-0.1,0-0.2,0-0.3c-0.5-1.9-2.6-3.9-4.6-5.4c-1.2-0.9-2.4-1.7-3.6-2.5
	c1.9-2.6,1.4-6.3-1.3-8.3C47,37.8,45.7,37.4,44.4,37.4L44.4,37.4z M44.4,38.1c2.9,0,5.3,2.4,5.3,5.3c0,2.9-2.4,5.3-5.3,5.3
	c-2.9,0-5.3-2.4-5.3-5.3c0-1.4,0.6-2.7,1.5-3.7C41.7,38.7,43,38.1,44.4,38.1L44.4,38.1z"/>
<path class="st0" d="M47.4,38.7v9.1h0.3c0.2-0.3,0.5-0.6,0.9-0.8v-7.4C48.2,39.3,47.8,39,47.4,38.7L47.4,38.7z M41,38.8l-0.2,0.7
	l2.1,0.7l0.2-0.7L41,38.8z M44.8,38.8l-1.3,0.5l0.3,0.7l1.3-0.5L44.8,38.8z M39.4,40.7l-0.2,0.7l2.2,0.6l0.2-0.7L39.4,40.7z
	 M44.8,40.7L43,41.7l-0.7-0.2l-0.2,0.7l0.9,0.3l0.2,0l0.1-0.1l1.9-1.1L44.8,40.7z M39,42.5l-0.2,0.7l2.2,0.6l0.2-0.7L39,42.5z
	 M44.8,42.5L43,43.6l-1.1-0.3L41.7,44l1.2,0.3l0.2,0l0.1-0.1l1.9-1.1L44.8,42.5z M39,44.4l-0.2,0.7l2.2,0.6l0.2-0.7L39,44.4z
	 M44.8,44.4L43,45.5l-1.1-0.3l-0.2,0.7l1.2,0.3l0.2,0l0.1-0.1l1.9-1.1L44.8,44.4z M39.8,46.3L39.6,47l2.1,0.7L42,47L39.8,46.3z
	 M44.8,46.3l-1.7,1l-0.3-0.1L42.5,48l0.5,0.2l0.2,0.1l0.1-0.1l1.9-1.1L44.8,46.3z"/>
<path class="st0" d="M31,19.7c0.1,0.2,0.3,0.3,0.5,0.2c0,0,0,0,0,0c0.6-0.2,1.3-0.4,2-0.5c11.8-2.4,23.3,5.3,25.7,17.1c0,0,0,0,0,0
	l0,0c0,0.2,0.2,0.3,0.4,0.3c0.2,0,0.3-0.2,0.3-0.4l0,0c-0.2-1-0.5-2.1-0.8-3.1c-3.7-10.6-14.7-16.8-25.7-14.6
	c-0.7,0.1-1.4,0.3-2.1,0.5C31.1,19.3,31,19.5,31,19.7C31,19.7,31,19.7,31,19.7L31,19.7z"/>
<path class="st0" d="M26.8,21.6c0.1,0.2,0.3,0.2,0.5,0.1c0.5-0.3,0.9-0.5,1.5-0.7c0.2-0.1,0.2-0.3,0.2-0.4l0,0
	c-0.1-0.2-0.3-0.3-0.5-0.2c0,0,0,0,0,0c-0.5,0.2-1,0.5-1.5,0.7C26.8,21.2,26.7,21.4,26.8,21.6L26.8,21.6z"/>
<path class="st0" d="M45.8,61.5L45.8,61.5c-0.1-0.2-0.3-0.3-0.5-0.2c0,0,0,0,0,0c-1.1,0.4-2.2,0.7-3.3,0.9
	c-11.8,2.4-23.3-5.3-25.7-17.1c-0.4-2.2-0.5-4.5-0.3-6.7c0-0.2-0.1-0.4-0.3-0.4c-0.2,0-0.3,0.1-0.4,0.3l0,0
	c-1.4,12.4,7.5,23.5,19.9,24.9c3.5,0.4,7.1,0,10.4-1.3C45.7,61.9,45.8,61.7,45.8,61.5z"/>
<path class="st0" d="M48,60.4c0.1,0.2,0.3,0.2,0.5,0.1c0.5-0.3,1-0.6,1.5-0.9c0.2-0.1,0.2-0.4,0-0.5C50,59,49.8,59,49.7,59.1l0,0
	c-0.5,0.3-1,0.6-1.5,0.9C48,60.1,47.9,60.3,48,60.4L48,60.4z"/>
</svg>
