<?xml version="1.0" encoding="utf-8"?>
<!-- Generator: Adobe Illustrator 23.0.1, SVG Export Plug-In . SVG Version: 6.00 Build 0)  -->
<svg width="75px" height="75px" version="1.1" id="Layer_1" xmlns="http://www.w3.org/2000/svg" xmlns:xlink="http://www.w3.org/1999/xlink" x="0px" y="0px"
	 viewBox="0 0 75 75" style="enable-background:new 0 0 75 75;" xml:space="preserve">
<style type="text/css">
	.st0{fill:#FFFFFF;}
</style>
<title>ggg</title>
<path class="st0" d="M29.9,23.4l-1.1-0.2c-0.1,0.4-0.1,0.8-0.1,1.2h1.1C29.8,24,29.8,23.7,29.9,23.4z"/>
<path class="st0" d="M34.7,19.4v-1.1c-2.4,0-4.6,1.4-5.5,3.6l1,0.4C31,20.6,32.8,19.4,34.7,19.4z"/>
<path class="st0" d="M49,31.2L49,31.2c-0.1-0.1-0.2-0.2-0.3-0.2l-6.3-2.3c2.4-4.2,0.9-9.6-3.3-12s-9.6-0.9-12,3.3
	c-1.5,2.7-1.5,6,0,8.7L20.8,31c-0.1,0-0.2,0.1-0.3,0.2l0,0l-2.2,3.9c-0.1,0.3-0.1,0.6,0.2,0.7h0.1l1.8,0.7v4.3
	c0,0.2,0.1,0.4,0.4,0.5l13.7,4.9c0.1,0,0.3,0,0.4,0l13.7-4.9c0.2-0.1,0.4-0.3,0.4-0.5v-4.3l1.8-0.7c0.3-0.1,0.4-0.4,0.3-0.7
	c0,0,0,0,0,0v-0.1L49,31.2z M46.9,31.5l-7.2,2.6v-2.5c0.8-0.5,1.5-1.2,2.1-2L46.9,31.5z M27,24.4c0-4.3,3.4-7.7,7.7-7.7
	c4.3,0,7.7,3.4,7.7,7.7c0,2.7-1.4,5.1-3.6,6.5c-0.2,0.1-0.3,0.3-0.3,0.5v3.2l-1.1,0.4v-7.2c0-0.1,0-0.2-0.1-0.2l0,0L35.2,23
	c-0.2-0.3-0.5-0.4-0.8-0.2c-0.1,0-0.1,0.1-0.2,0.2L32,27.4l0,0c0,0.1-0.1,0.2-0.1,0.2v7.2l-1.1-0.4v-3.1c0-0.2-0.1-0.4-0.3-0.5
	C28.4,29.4,27,27,27,24.4z M27.7,29.7c0.6,0.8,1.3,1.4,2.1,2v2.5l-7.2-2.6L27.7,29.7z M19.6,35.1l1.6-2.9l12.7,4.6l-1.6,2.9
	L19.6,35.1z M34.2,45l-12.6-4.5v-3.5l10.8,3.9c0.1,0,0.1,0,0.2,0c0.2,0,0.4-0.1,0.5-0.3l1.2-2.1L34.2,45z M34.2,35.7l-1.1-0.4v-7.1
	h1.1V35.7z M33.4,27.1l1.3-2.6l1.3,2.6H33.4z M36.4,28.2v7.1l-1.1,0.4v-7.5H36.4z M47.9,40.5L35.3,45v-6.5l1.2,2.1
	c0.1,0.2,0.4,0.3,0.7,0.2L48,36.9L47.9,40.5z M37.2,39.6l-1.6-2.9l12.7-4.6l1.6,2.9L37.2,39.6z"/>
<path class="st0" d="M24.5,20.3c-0.9,2.4-1,5.1-0.2,7.5l1-0.3c-0.7-2.2-0.7-4.6,0.2-6.8L24.5,20.3z"/>
<path class="st0" d="M45.7,24.4c0-0.4,0-0.8-0.1-1.2l-1.1,0.1c0,0.3,0.1,0.7,0.1,1L45.7,24.4z"/>
<path class="st0" d="M36.5,13.5l-0.2,1.1c4,0.7,7.2,3.7,8.1,7.7l1.1-0.2C44.5,17.6,40.9,14.2,36.5,13.5z"/>
<path class="st0" d="M48.4,15.7c-0.1,0.1-0.1,0.4,0,0.5c0.5,0.5,1,1,1.4,1.5c8.1,8.9,7.4,22.7-1.6,30.8c0,0,0,0,0,0l0,0
	c-0.1,0.1-0.2,0.4,0,0.5c0.1,0.1,0.4,0.2,0.5,0l0,0c0.8-0.7,1.5-1.5,2.2-2.3c7.2-8.6,6.9-21.2-0.6-29.5c-0.5-0.5-1-1-1.5-1.5
	C48.8,15.6,48.5,15.6,48.4,15.7C48.4,15.7,48.4,15.7,48.4,15.7L48.4,15.7z"/>
<path class="st0" d="M44.6,13.1c-0.1,0.2,0,0.4,0.1,0.5c0,0,0,0,0,0c0.5,0.3,0.9,0.6,1.4,0.9c0.1,0.1,0.4,0.1,0.5-0.1l0,0
	c0.1-0.2,0.1-0.4-0.1-0.5c0,0,0,0,0,0c-0.5-0.3-0.9-0.6-1.4-0.9C44.9,12.9,44.7,12.9,44.6,13.1C44.6,13.1,44.6,13.1,44.6,13.1
	L44.6,13.1z"/>
<path class="st0" d="M20.1,49.8L20.1,49.8c0.1-0.1,0.1-0.4,0-0.5c-0.9-0.7-1.7-1.5-2.5-2.4c-8.1-8.9-7.4-22.7,1.6-30.8
	c1.7-1.5,3.6-2.8,5.6-3.7c0.2-0.1,0.2-0.3,0.1-0.5c-0.1-0.1-0.3-0.2-0.4-0.2l0,0C13.1,16.9,8.1,30.3,13.2,41.6
	c1.5,3.2,3.6,6,6.4,8.3C19.7,50,19.9,49.9,20.1,49.8z"/>
<path class="st0" d="M22.1,51.2c-0.1,0.2,0,0.4,0.1,0.5c0,0,0,0,0,0c0.5,0.3,1.1,0.6,1.6,0.8c0.1,0.1,0.3,0,0.4-0.1l0.1-0.1
	c0.1-0.2,0-0.4-0.2-0.5c0,0,0,0,0,0l0,0c-0.5-0.3-1-0.5-1.5-0.8C22.4,50.9,22.2,51,22.1,51.2C22.1,51.2,22.1,51.2,22.1,51.2
	L22.1,51.2z"/>
</svg>
