<?xml version="1.0" encoding="utf-8"?>
<!-- Generator: Adobe Illustrator 23.0.1, SVG Export Plug-In . SVG Version: 6.00 Build 0)  -->
<svg width="75px" height="75px" version="1.1" id="Layer_1" xmlns="http://www.w3.org/2000/svg" xmlns:xlink="http://www.w3.org/1999/xlink" x="0px" y="0px"
	 viewBox="0 0 75 75" style="enable-background:new 0 0 75 75;" xml:space="preserve">
<style type="text/css">
	.st0{fill:#FFFFFF;}
</style>
<title>ggg</title>
<circle class="st0" cx="37.8" cy="18.1" r="3.8"/>
<path class="st0" d="M30.8,33.3c0.1,0,0.1,0,0.2-0.1l3.3-2.7C34.2,30.4,34,30.2,34,30c-0.7-1.4-1.1-3-1.1-4.6c0-0.2,0-0.5,0-0.7
	c0.1-0.8,0.8-1.5,1.6-1.5h0.2c0.9,0.1,1.6,0.9,1.5,1.8c0,0,0,0,0,0.1v0.1c0,0.1,0,0.2,0,0.3c0,1,0.2,2,0.7,2.9
	c0.1-0.4,0.1-0.7,0.2-1c0,0.4,0,0.7,0,1.1l0.8-0.6c0.1-0.1,0.2-0.1,0.3-0.2c-0.1-1.5-0.5-3-1-4.4l0,0c-0.3-0.6-0.7-1-1.3-1.1
	c-1.4-0.4-3.5,0.4-4.3,2.9c-0.8,2.2-1.2,4.6-1.1,7l0.3,1.2C30.6,33.2,30.7,33.3,30.8,33.3z"/>
<path class="st0" d="M37.9,39.8c-0.5,0-0.9-0.3-1-0.7l-1-3.2c0-0.1-0.1-0.2-0.3-0.2c-0.1,0-0.1,0-0.2,0.1l-3.4,2.5c0,0.3,0,0.7,0,1
	c0,1.6-0.3,3.3-0.9,4.8c-0.8,1.9-2,3.6-3.6,4.9c-0.9,0.7-1,2.1-0.3,2.9s2.1,1,2.9,0.3c2.8-2.2,4.8-5.3,5.6-8.8
	c0.7,2.4,1.2,4.9,1.4,7.4c0.1,1.1,1,1.9,2.1,1.9h0.2c1.2-0.1,2-1.1,1.9-2.2c0,0,0,0,0-0.1c-0.3-3.8-1.1-7.6-2.6-11.1l-0.4,0.3
	C38.3,39.7,38.1,39.8,37.9,39.8z"/>
<path class="st0" d="M53.9,23.4l-9.4-0.8c-0.5,0-0.7,0.3-0.5,0.7l1.7,3.4c0.2,0.5,0.1,1-0.3,1.4l-4.2,3.3c0.8,0.3,1.3,1.3,0.9,2.1
	c-0.3,0.7-1,1.1-1.7,1l0,0c-0.1,0-0.3,0-0.4,0c-2.2-0.5-4.2-1.7-5.6-3.6l-3.3,2.6c-0.2,0.2-0.6,0.2-0.8,0c-0.1-0.1-0.1-0.2-0.2-0.3
	l-0.8-2.8c0-0.3-0.3-0.5-0.6-0.5c-0.1,0-0.2,0.1-0.3,0.2l-10.1,8.4c-0.4,0.3-0.5,0.8-0.3,1.3c0.2,0.4,0.8,0.5,1.1,0.2c0,0,0,0,0,0
	l7.5-4.7c0.3-0.2,0.7-0.2,0.9,0.1c0.1,0.1,0.1,0.2,0.1,0.3l1,3.4c0.1,0.3,0.4,0.5,0.7,0.5c0.1,0,0.2-0.1,0.3-0.1l5.5-4
	c0.2-0.2,0.6-0.2,0.9,0c0.1,0.1,0.1,0.2,0.1,0.3l1,3.2c0.1,0.3,0.3,0.5,0.6,0.5c0.1,0,0.2-0.1,0.3-0.2l9.2-7.9
	c0.2-0.3,0.7-0.3,0.9,0c0.1,0.1,0.1,0.2,0.2,0.2l1.7,3.9c0.2,0.5,0.5,0.4,0.6,0l3.7-11.2c0.2-0.3,0-0.8-0.3-0.9
	C54.1,23.4,54,23.4,53.9,23.4z"/>
<path class="st0" d="M40.2,34.1c0.7,0.2,1.5-0.3,1.6-1c0.2-0.7-0.3-1.5-1-1.6c-1.8-0.3-3.3-1.4-4.2-2.9c-0.5-1-0.8-2.1-0.8-3.2
	c0-0.1,0-0.2,0-0.3V25l0,0c0.1-0.7-0.4-1.4-1.2-1.5c-0.7-0.1-1.4,0.4-1.5,1.2l0,0c0,0.2,0,0.5,0,0.7c0,1.5,0.4,3.1,1.1,4.4
	C35.5,32.1,37.7,33.6,40.2,34.1z"/>
<path class="st0" d="M59.4,37c-0.2,0-0.4,0.1-0.4,0.3c-0.1,0.7-0.3,1.3-0.5,2c-3.3,11.6-15.3,18.3-26.9,15.1c0,0,0,0,0,0l0,0
	c-0.2-0.1-0.4,0.1-0.4,0.2c-0.1,0.2,0.1,0.4,0.2,0.4c1,0.3,2.1,0.5,3.1,0.6c11.1,1.5,21.6-5.4,24.6-16.2c0.2-0.7,0.4-1.4,0.5-2.1
	C59.7,37.2,59.5,37,59.4,37C59.3,37,59.3,37,59.4,37L59.4,37z"/>
<path class="st0" d="M59.6,32.4c-0.2,0-0.3,0.2-0.3,0.4c0,0.5,0,1.1,0,1.6c0,0.2,0.1,0.3,0.3,0.4l0,0c0.2,0,0.4-0.1,0.4-0.3
	c0,0,0,0,0,0c0-0.6,0-1.1,0-1.6C60,32.5,59.8,32.4,59.6,32.4C59.6,32.4,59.6,32.4,59.6,32.4L59.6,32.4z"/>
<path class="st0" d="M15.4,31.1L15.4,31.1c0.2,0,0.4-0.1,0.4-0.3c0.1-1.2,0.4-2.3,0.7-3.4C19.8,15.8,31.8,9,43.4,12.3
	c2.2,0.6,4.2,1.6,6.1,2.8c0.2,0.1,0.4,0,0.5-0.1c0.1-0.1,0-0.3-0.1-0.4l0,0c-10.4-6.9-24.3-4-31.2,6.3c-2,2.9-3.2,6.3-3.6,9.8
	C15.1,30.9,15.2,31.1,15.4,31.1z"/>
<path class="st0" d="M15.3,33.6c-0.2,0-0.3,0.2-0.3,0.4c0,0.6,0.1,1.2,0.1,1.8c0,0.2,0.1,0.3,0.3,0.3h0.1c0.2,0,0.3-0.2,0.3-0.4
	c0,0,0,0,0,0l0,0c-0.1-0.6-0.1-1.2-0.1-1.7C15.7,33.7,15.5,33.6,15.3,33.6C15.3,33.6,15.3,33.6,15.3,33.6L15.3,33.6z"/>
</svg>
